<?xml version="1.0" standalone="no"?>
<!DOCTYPE svg PUBLIC "-//W3C//DTD SVG 1.1//EN" "http://www.w3.org/Graphics/SVG/1.1/DTD/svg11.dtd" >
<svg xmlns="http://www.w3.org/2000/svg" xmlns:xlink="http://www.w3.org/1999/xlink" version="1.1">
<metadata></metadata>
<defs>
<font id="a_space_lightregular" horiz-adv-x="1680" >
<font-face units-per-em="2048" ascent="1638" descent="-410" />
<missing-glyph horiz-adv-x="665" />
<glyph unicode="&#xd;" horiz-adv-x="220" />
<glyph horiz-adv-x="220" />
<glyph horiz-adv-x="220" />
<glyph unicode=" "  horiz-adv-x="665" />
<glyph unicode="&#x09;" horiz-adv-x="665" />
<glyph unicode="&#xa0;" horiz-adv-x="665" />
<glyph unicode="!" horiz-adv-x="305" d="M104 1v94h94v-94h-94zM110 449v976h85v-976h-85z" />
<glyph unicode="&#x22;" horiz-adv-x="499" d="M110 1216v210h89v-210l-20 -160h-49zM300 1216v210h89v-210l-20 -160h-49z" />
<glyph unicode="#" horiz-adv-x="1759" d="M110 859v85h477l95 416l82 -19l-90 -397h530l95 416l83 -19l-91 -397h324v-85h-343l-85 -372h462v-85h-481l-91 -402l-83 19l87 383h-530l-92 -402l-82 19l87 383h-320v85h339l85 372h-458zM570 487h531l84 372h-530z" />
<glyph unicode="$" horiz-adv-x="1676" d="M110 927v267q0 96 68 164q68 67 163 67h455v112h85v-112h643v-84h-643v-560h443q100 0 171 -71t71 -171v-295q0 -101 -71 -172t-171 -71h-443v-111h-85v111h-644v85h644v610h-455q-95 0 -163 68t-68 163zM195 927q0 -60 43 -103t103 -43h455v560h-455q-60 0 -103 -43 t-43 -104v-267zM881 86h443q65 0 111 46q47 47 47 112v295q0 65 -47 111q-46 46 -111 46h-443v-610z" />
<glyph unicode="%" horiz-adv-x="1191" d="M110 985v262q0 72 56 123q55 51 134 51t135 -51q55 -51 55 -123v-262q0 -72 -55 -123q-56 -51 -135 -51t-134 51q-56 51 -56 123zM194 985q0 -37 31 -63t75 -26t75 26t31 63v262q0 37 -31 63t-75 26t-75 -26t-31 -63v-262zM353 52l405 1341l81 -25l-405 -1341zM701 174 v262q0 72 55 123q56 51 135 51t135 -51q55 -51 55 -123v-262q0 -72 -55 -123q-56 -51 -135 -51t-135 51q-55 51 -55 123zM785 174q0 -37 31 -63t75 -26t75 26t31 63v262q0 37 -31 63t-75 26t-75 -26t-31 -63v-262z" />
<glyph unicode="&#x26;" horiz-adv-x="1616" d="M110 232v318q0 119 98 189q-98 69 -98 189v266q0 96 68 164q67 68 163 68h778v-85h-778q-61 0 -104 -43t-43 -104v-266q0 -61 43 -104t104 -43h1165v-85h-65q53 -64 53 -146v-318q0 -96 -68 -164t-163 -68h-922q-96 0 -163 68q-68 68 -68 164zM194 232q0 -61 43 -104 t104 -43h922q60 0 103 43t43 104v318q0 60 -43 103t-103 43h-922q-61 0 -104 -43t-43 -103v-318z" />
<glyph unicode="'" horiz-adv-x="309" d="M110 1216v210h89v-210l-20 -160h-49z" />
<glyph unicode="(" horiz-adv-x="564" d="M110 -56v1138q0 142 101 243q100 101 243 101v-85q-108 0 -184 -76t-76 -183v-1138q0 -107 76 -183t184 -76v-85q-143 0 -243 101q-101 101 -101 243z" />
<glyph unicode=")" horiz-adv-x="564" d="M110 -315q108 0 184 76t76 183v1138q0 107 -76 183t-184 76v85q143 0 243 -101q101 -101 101 -243v-1138q0 -142 -101 -243q-100 -101 -243 -101v85z" />
<glyph unicode="*" horiz-adv-x="827" d="M110 1199l23 81l238 -68v215h84v-215l238 68l24 -81l-230 -67l139 -170l-65 -54l-148 181l-147 -181l-66 54l140 170z" />
<glyph unicode="+" horiz-adv-x="1215" d="M110 667v85h455v399h85v-399h455v-85h-455v-399h-85v399h-455z" />
<glyph unicode="," horiz-adv-x="314" d="M110 0v94h94v-214h-44q-2 72 -20 120h-30z" />
<glyph unicode="-" horiz-adv-x="1015" d="M110 663v85h795v-85h-795z" />
<glyph unicode="." horiz-adv-x="1547" d="M100 -82v1710h1335v-1710h-1335zM165 -22h1204v1590h-1204v-1590zM199 758q18 24 50 24h9q28 -5 28 -40q0 -34 -33 -49q-12 -5 -27 -7v-37h-1q-5 0 -14 3v34h-5l-5 1q0 11 5 19h5q0 41 -6 41q-6 7 -6 11zM211 142q0 5 11 16h3q8 -18 30 -18q18 0 18 20q0 15 -21 18 q-27 0 -32 12q-4 8 -4 12v8q0 34 42 34q24 -5 24 -21v-1q-1 -2 -12 -9h-3q0 7 -13 8h-1q-13 0 -20 -10v-4q0 -6 31 -6q27 -12 27 -38v-5q0 -28 -22 -38q-5 -3 -10 -3h-9q-23 0 -39 25zM222 1112v54h17q0 -27 16 -50q9 -8 15 -8h23q8 0 19 16q10 19 10 30v3q-7 46 -31 46 q0 1 -7 1h-23q-30 0 -39 44v81q10 45 40 45h28q30 0 42 -53q2 -23 2 -35v-4h-23v2q-5 34 -20 34h-32q-12 0 -19 -28q6 -28 16 -28q0 -3 14 -3h24q28 0 46 -55q4 -21 4 -50q0 -76 -39 -99q-9 -3 -14 -3h-20q-35 0 -49 60zM224 755q1 -35 1 -47q1 0 1 -2q29 6 37 17q8 10 8 18 q0 18 -15 21h-6q-26 -3 -26 -7zM288 694q0 40 32 53l11 1q23 -4 23 -22v-6q0 -20 -39 -36h-10q0 -11 17 -16q11 0 21 18h4q8 -12 8 -15q-17 -22 -30 -22h-7q-26 0 -30 45zM296 210v24h15v9q0 46 5 46l15 -5q-2 -23 -2 -36v-14q13 3 15 3q2 -20 2 -24h-2q-9 -1 -15 -1 q3 -63 5 -91q-12 -2 -17 -2v1q-5 61 -5 88l-2 2h-14zM305 705q19 0 33 18v2q-7 2 -9 2q-16 0 -24 -19v-3zM350 215v24q17 -5 17 -6v-20q0 -67 12 -67h5q17 19 24 55q5 10 6 38h2q15 -2 15 -6q-3 -42 -3 -59v-10q0 -10 5 -20q0 -6 -10 -18q-12 12 -12 25h-1q-11 -29 -28 -29 h-3q-29 0 -29 93zM352 436v4q0 58 45 79l7 2h10q14 0 23 -23q-6 -6 -6 -9h-3q-9 15 -21 15q-17 0 -35 -26q-9 -19 -9 -34v-5q0 -29 24 -35q2 -1 8 -1q31 3 31 20v10q-4 3 -12 3h-10v17q28 0 33 -9q2 -7 2 -9q-2 -25 -2 -29q0 -11 4 -26q-1 0 -8 -5h-1q-4 0 -6 22 q-6 -8 -29 -12h-2q-38 0 -43 51zM357 733q12 2 15 2v-1q0 -4 3 -19h1q10 43 28 43q19 0 28 -49q-1 0 -15 -4q-6 33 -13 33q-17 -9 -20 -75q1 -14 1 -15q-10 -2 -15 -2q-13 69 -13 87zM360 1233v56h18v85h22v-85h20v-56h-20v-164q0 -40 19 -52q4 -1 9 -1v-55h-5q-34 0 -44 68 q-1 6 -1 19v185h-18zM432 667v1q1 3 9 11h1q12 -15 28 -15q14 4 14 16q-4 15 -21 15q-28 0 -28 22v3q0 30 37 30q18 -5 18 -17v-1q0 -2 -10 -8h-1q-4 7 -13 7q-13 0 -16 -11q0 -5 29 -6q20 -11 20 -34q0 -25 -20 -34l-8 -2h-5q-24 0 -34 23zM437 187q0 48 34 58h4 q14 0 29 -16v1q0 8 3 65q1 0 17 -4q-4 -38 -5 -92q0 -34 10 -69q-11 -10 -12 -10h-1q-3 0 -6 13h-2q0 -8 -21 -16q-33 0 -47 42q-3 12 -3 28zM443 973v22q0 9 7 13h11q3 0 5 -10v-3l-8 -2q0 4 -2 4h-1q-2 0 -3 -4v-14v-6h4q2 0 2 5l8 -3v-3q-1 -12 -10 -12q-13 1 -13 13z M443 1108v181h23v-149q0 -26 18 -32h24q15 0 18 38v143h22v-237h-22v7q-10 -7 -18 -7h-23q-32 0 -42 56zM446 422v15q0 33 26 46q5 2 15 2q20 -4 20 -20q1 0 1 -2q0 -23 -35 -36q-5 -3 -15 -3v-1q0 -11 17 -17h1q10 0 23 16h3q0 -2 6 -9v-1q-14 -22 -29 -22h-6q-19 0 -27 32 zM454 183q0 -34 30 -40h3q12 0 15 26v3q0 36 -21 48l-6 1h-2q-17 0 -19 -35v-3zM457 440q23 0 39 22q-2 6 -11 6h-3q-19 0 -25 -28zM471 960v66h8v-18h6q10 0 10 -15v-33h-8v30q0 6 -3 7h-2q-3 0 -3 -9v-28h-8zM501 684q0 50 25 65q2 1 11 3q20 0 33 -32q2 -9 2 -17v-3 q0 -36 -35 -53q-5 -1 -9 -1q-27 4 -27 38zM501 975v21q0 9 7 12h6q11 0 11 -24t-14 -24q-10 2 -10 15zM508 975q1 -2 3 -2h2q3 0 3 2v21l-5 1l-3 -4v-18zM513 462v16l11 1h2v18q0 27 3 27q8 -2 10 -2q-2 -29 -2 -42h2l12 2v-17q-1 0 -14 -2l4 -74l-2 -2h-8q-3 29 -5 75h-13z M516 685q2 -18 12 -18h3q24 7 26 35v3q-6 26 -20 26h-2q-13 0 -18 -32q-1 -7 -1 -14zM529 980v10q0 15 8 18h9q8 -4 8 -13v-22q0 -12 -13 -13q-12 0 -12 20zM534 272q2 14 12 14q9 0 11 -14v-1q0 -11 -8 -16h-7q-8 5 -8 17zM537 240h12l6 -1q0 -3 -1 -8q1 -67 4 -109h-18 l-1 8q-2 68 -2 110zM537 982q0 -8 4 -9h4l1 6v14q0 2 -4 4h-1q-4 0 -4 -9v-6zM558 975v6h6v1q-6 1 -6 9v6q0 9 6 11h10q4 -5 4 -17h-3q5 -7 5 -15q-1 -16 -11 -16q-11 2 -11 15zM566 160v14q0 51 30 69q10 2 11 2q25 0 41 -38q2 -11 2 -17v-9q0 -40 -39 -60q-4 -2 -13 -2 q-27 0 -32 41zM566 975q0 -2 3 -2h2q0 3 1 3q-1 3 -1 5h-5v-6zM566 993h4v4h-4v-4zM569 1116v111q0 40 30 61l8 1h23q13 0 21 -8v93h21v-322h-21v7q-11 -7 -17 -7h-24q-36 0 -41 64zM575 729q7 2 14 2q3 -17 3 -20h1q7 41 21 41q19 0 36 -89q1 0 1 -7q-8 -7 -12 -7 q-15 62 -23 80q-9 -13 -18 -70q-1 0 -5 -10h-7q-7 0 -9 57q-2 14 -2 23zM583 168q0 -22 15 -25h4q15 0 29 29q2 4 2 9v9q-7 31 -24 31h-2q-21 0 -24 -53zM584 986v1q0 17 6 21h11q6 -4 6 -11v-15h-14v-7q0 -2 2 -2h3l1 6h8v-4q0 -15 -12 -15q-11 0 -11 26zM590 1139 q4 -31 19 -31h24q17 0 18 42v37q0 35 -14 44l-6 2h-22q-19 -6 -19 -32v-62zM592 444v17q6 0 10 2q-3 21 -3 52q3 29 17 29h2q13 0 15 -34v-3l-6 -1h-2q-3 21 -8 21q-6 0 -8 -19q1 -2 1 -4q0 -10 2 -39q5 3 9 3h3v-15l-11 -3q5 -57 5 -69h-11q-4 54 -4 65h-1q-5 -2 -10 -2z M593 995h5q0 2 -2 2h-1q-2 0 -2 -2zM628 981v27h8v-24l1 -11h6l2 6v29h7v-51q0 -10 -7 -14h-9q-6 0 -6 20h3q-5 5 -5 18zM634 483q2 0 11 -3q0 -74 14 -74q19 12 28 66q1 5 1 11h1q3 0 10 -3q-3 -24 -3 -45v-12q0 -9 5 -19q-5 -7 -5 -11h-2q-7 4 -8 26h-2q-4 -15 -19 -29h-9 q-20 0 -20 75v10zM637 957q1 -2 3 -2t5 3v2h-8v-3zM652 668v8q0 30 32 35q11 -1 20 -6v1q-4 25 -17 25q-9 0 -18 -10h-3q-2 1 -8 11v2q12 14 23 14h11q27 -9 27 -45q-1 -21 -1 -35l2 -16q-9 -8 -13 -8h-1l-2 11q-12 -8 -23 -8h-7q-22 3 -22 21zM654 210v24h17q0 34 3 55h1 l15 -5q-2 -28 -2 -45v-5q14 3 16 3l1 -14v-10q-16 -1 -16 -2q0 -23 5 -90q-13 -2 -17 -2v1q-5 75 -5 90h-18zM658 973v22q0 9 7 13h10q8 -3 8 -18v-10q0 -20 -12 -20q-13 1 -13 13zM666 979l1 -6h4q3 1 3 9v6q0 9 -3 9h-2q-1 0 -3 -4v-14zM667 671q0 -3 10 -6q17 0 25 17 q-8 7 -19 7q-16 -3 -16 -15v-3zM687 984v24h9v-33q1 -2 2 -2h4l1 6v29h8v-48h-10q-14 0 -14 24zM699 1052v237h22v-237h-22zM699 1318v56h22v-56h-22zM709 488v39h4h6v-9q0 -61 3 -132h-11q-2 65 -2 102zM710 201v9q0 33 3 33q12 -4 15 -4q-1 -23 -1 -34v-6q0 -33 12 -44h5 q22 18 22 72v10h17v-1q8 -89 8 -103v-10q0 -44 -28 -60q-10 -4 -16 -4q-22 0 -29 20q-2 4 -2 9v9q0 15 4 15l14 -7l-1 -8v-4q0 -8 11 -10h4q20 0 25 33q1 4 1 12v20l-1 13h-1q-10 -30 -29 -30h-2q-23 0 -30 50q-1 8 -1 20zM716 960v48h17v-11q-8 0 -8 -7v-30h-9zM725 782v3 v6h3l11 -1v-18q2 -70 2 -126l-7 -2h-6q-3 71 -3 138zM733 522v3q0 2 2 2h1h8v-30q0 -32 3 -111h-11q-3 66 -3 136zM748 1118v106q0 44 29 64q9 2 20 2h6q28 0 36 -21q13 -17 13 -53v-89q0 -56 -30 -72q-4 -3 -9 -3h-24q-35 0 -41 66zM752 986v1q0 17 7 21h10q8 -3 8 -12 q-5 -3 -9 -3q0 4 -3 4h-2q-1 0 -1 -2v-20q0 -2 1 -2h5v5h3q6 -3 6 -6q0 -11 -14 -12q-11 0 -11 26zM769 1140q0 -25 19 -32h24q18 6 18 34v57q0 35 -25 35h-14q-11 0 -16 -10q-6 -10 -6 -23v-61zM781 960v66h8v-18h6q10 0 10 -21v-27h-9v36l-5 1l-2 -4v-33h-8zM782 731v11 q0 25 8 44h4q0 -2 7 -12q-4 -18 -4 -30v-18q0 -44 15 -58h1q21 0 35 117h2q12 -4 13 -4q-6 -58 -6 -86q0 -31 12 -31q2 -16 2 -20h-8q-13 0 -20 32h-1q-11 -28 -27 -28h-5q-20 0 -27 61q-1 4 -1 22zM789 444v17l11 1q-3 46 -3 52q0 30 19 30q12 0 16 -37l-8 -1h-2v1 q0 15 -7 20q-8 -5 -8 -15q0 -8 3 -46v-1q5 3 10 3h1l1 -8v-7q-1 0 -12 -3l2 -3q0 -12 4 -66h-11q0 6 -4 65q-9 -2 -12 -2zM800 245h5q11 0 11 -3v-2q9 5 19 5q25 0 33 -44q0 -11 1 -14q-3 -52 -31 -64l-8 -1h-10l1 -8q0 -6 1 -40h-17q-5 132 -5 171zM809 976q0 9 4 14v1h-3 v6q0 9 5 11h9q8 0 8 -22v-10q2 -8 2 -9l-2 -8h-3q-2 0 -2 2q-4 -2 -7 -2h-2q-9 5 -9 17zM816 213q0 -3 3 -67l7 -1q22 0 26 42q-3 34 -17 34h-1q-10 0 -18 -8zM818 975q0 -3 2 -3t2 3v6h-2q-2 0 -2 -2v-4zM818 993h4v4h-2q-2 0 -2 -2v-2zM833 423v4q0 41 19 57q8 5 14 5 q23 0 34 -38v-14q0 -34 -34 -50l-7 -1q-16 0 -24 20q-2 11 -2 17zM837 960v48h16v-11q-8 0 -8 -8v-29h-8zM843 427q2 -23 15 -23h1q16 0 27 25q3 8 3 11q-6 31 -22 31h-4q-15 0 -20 -44zM858 973v7q0 7 4 11h-4v5q2 12 5 12h11q6 -2 6 -15v-17q0 -4 3 -6q-2 -11 -4 -11h-3 q0 2 -1 2q-4 -2 -7 -2q-9 0 -10 14zM865 1318v56h138v-56h-59v-266h-22v266h-57zM866 978l1 -6h1q3 1 3 9h-3q-2 0 -2 -2v-1zM866 993h5v4h-3q-2 0 -2 -2v-2zM871 667v1q8 11 10 11h1q12 -15 27 -15q14 4 14 16t-16 15q-25 0 -30 11q-2 11 -2 14q0 30 37 30q13 0 20 -18v-1 q-11 -7 -14 -7q0 6 -11 7q-12 0 -17 -10v-1q0 -5 29 -6q19 -9 19 -36q0 -26 -24 -34h-8q-23 0 -35 23zM873 169q0 54 30 74q11 2 12 2q23 0 39 -35q4 -13 4 -24q0 -43 -38 -65q-8 -2 -14 -2q-22 0 -31 27q-2 12 -2 23zM886 987q0 17 6 21h11q6 -3 6 -12q-4 -3 -8 -3 q0 4 -3 4h-1q-2 0 -2 -2v-20q0 -2 2 -2h3q1 0 1 5h3q5 -3 5 -6q0 -12 -12 -12q-11 0 -11 27zM890 163q0 -17 15 -20h2q16 0 30 26q4 8 4 18q-6 34 -28 34q-19 0 -23 -53v-5zM905 466l8 2h2q3 -16 3 -33h1q9 54 24 54t34 -94h-1q-5 -4 -9 -4q-15 67 -24 79q-7 -7 -23 -79 l-2 -1h-4q-6 0 -9 76zM913 997v11h3v18h8v-18h5v-11h-5v-16q0 -8 6 -8v-13h-1q-10 0 -13 18v19h-3zM935 975v21q0 9 7 12h6q10 0 10 -12v-14h-15v-7q0 -2 2 -2h2q3 0 3 6h9q0 -19 -14 -19q-10 2 -10 15zM941 693q0 40 30 54l12 1q24 -4 24 -23q0 -29 -42 -41h-7v-2 q7 -14 16 -14q10 0 23 18h1q1 0 9 -12q0 -9 -21 -22q-4 -3 -9 -3h-7q-24 0 -29 44zM944 995h6v1l-5 1zM958 705h3q17 0 31 19q-6 3 -9 3h-3q-16 0 -22 -21v-1zM964 960v48h16v-11q-9 0 -9 -8v-29h-7zM966 137q1 17 11 17q9 0 12 -14v-5q-3 -13 -12 -13t-11 15zM979 462l1 8 v8l11 1h1v1q0 21 2 44q3 0 12 -2q-3 -13 -3 -29v-13h3l12 2v-17h-3l-12 -2l5 -74l-5 -2h-6q-3 62 -3 75h-15zM990 961v56h57q27 0 27 35v6q-9 -8 -29 -8h-4q-31 0 -40 23q-11 15 -11 67v149h22v-140q0 -42 23 -42h16q19 0 23 32v150h22v-253q-2 -66 -37 -75h-69zM996 166 q0 34 19 64q12 12 18 12h8q6 0 15 -9q11 -12 11 -18q-11 -13 -12 -13q-11 15 -18 15h-2q-12 -5 -18 -28l-4 -21q0 -22 14 -24h3q11 0 34 16h1q6 -20 6 -22q-25 -18 -47 -18q-23 0 -28 46zM1044 687v9q0 50 40 88q8 2 10 2h6q12 0 28 -28q12 -22 12 -44v-9q0 -37 -40 -58 q-7 -3 -14 -3h-7q-30 0 -35 43zM1058 407v8q3 32 30 32q12 0 21 -8v3q0 25 -18 29h-3q-6 0 -17 -8h-1q-1 0 -6 7v2q10 13 19 13h11q16 0 24 -28q2 -16 3 -18q-1 -6 -3 -26q2 -4 2 -23l-6 -4h-3l-3 12q-10 -11 -25 -11h-4q-21 3 -21 20zM1059 688q0 -21 25 -24q22 0 37 27 q5 8 5 18v3q0 27 -26 53q-3 0 -3 2q-17 0 -35 -50q-3 -11 -3 -21v-8zM1068 412q3 -8 11 -8h6q14 0 22 18q-9 8 -17 8h-2q-20 -3 -20 -18zM1076 160v14q0 51 30 69q10 2 11 2q24 0 39 -35q4 -8 4 -19v-8q0 -43 -39 -62q-4 -2 -13 -2q-28 0 -32 41zM1092 168q0 -25 17 -25h3 q14 0 29 30q2 6 2 10v7q-8 31 -25 31h-1q-20 0 -25 -53zM1117 967v322h21v-7q9 7 17 7h23q36 0 42 -68v-87q0 -60 -28 -76q-5 -3 -17 -3h-13q-15 0 -24 6v-94h-21zM1126 462v16l11 1h1l2 45q3 0 12 -2q-2 -18 -2 -34v-8h2l12 2v-8v-9q-1 0 -14 -2v-6q0 -15 4 -68l-2 -2h-9 l-4 75h-13zM1138 1140q0 -27 22 -30h13q17 0 23 17q1 10 1 15v59q-2 33 -19 33h-18q-18 0 -22 -29v-65zM1144 729q6 2 15 2q1 -19 1 -22h1q7 43 24 43q16 0 35 -96q-9 -7 -13 -7q-15 66 -24 80q-6 -12 -19 -74q-3 -6 -4 -6h-6q-7 0 -10 80zM1164 227q13 6 17 6q2 -8 4 -31h2 q9 43 24 43q17 0 27 -58h1q8 58 27 58h1q24 0 40 -118h-2q-11 -5 -13 -5h-1q-19 98 -25 98q-10 -22 -17 -82q-3 -10 -10 -10q-8 0 -11 15q-13 76 -19 76q-16 -58 -16 -93q-10 -4 -17 -4v1zM1223 773q1 12 1 18h1l14 -1q-1 -9 -1 -13q0 -55 3 -131l-11 -2h-4q-2 58 -3 129z M1240 1116v108q0 44 30 64q9 2 20 2h6q28 0 36 -21q8 -9 8 -19v-157q-11 -41 -35 -41h-23q-35 0 -42 64zM1247 703v17q0 10 2 29q13 -2 14 -2q-1 -18 -1 -26v-9q2 -35 13 -35h1q18 13 18 67h15v-3q7 -78 7 -88q0 -46 -30 -56h-5h-5q-18 0 -23 19q-1 5 -1 10q0 15 3 15h1 q9 -6 12 -6l-1 -9q0 -8 9 -9h2q23 0 23 42q0 5 -1 21h-1q-8 -24 -26 -24h-1q-19 0 -25 47zM1262 1140q0 -25 19 -32h24q18 6 18 34v57q0 35 -25 35h-14q-12 0 -16 -10q-6 -10 -6 -23v-61z" />
<glyph unicode="/" horiz-adv-x="782" d="M11 -357l666 1783h89l-665 -1783h-90z" />
<glyph unicode="0" horiz-adv-x="1631" d="M110 428v570q0 177 126 302q125 126 302 126h555q177 0 303 -126q125 -125 125 -302v-570q0 -177 -125 -302q-126 -126 -303 -126h-555q-177 0 -302 126q-126 125 -126 302zM195 428q0 -142 100 -242q101 -101 243 -101h555q142 0 243 101q100 100 100 242v570 q0 142 -100 242q-101 101 -243 101h-555q-142 0 -243 -101q-100 -100 -100 -242v-570z" />
<glyph unicode="1" horiz-adv-x="618" d="M10 896l338 498q27 32 68 32q16 0 34 -5q58 -22 58 -84v-1337h-85v1337q0 4 -4 5h-1q-3 0 -5 -2l-335 -494z" />
<glyph unicode="2" horiz-adv-x="1676" d="M110 0v538q0 101 71 172t171 71h983q61 0 104 43q42 43 42 103v267q0 61 -42 104q-43 43 -104 43h-1139v85h1139q96 0 163 -68q68 -68 68 -164v-267q0 -95 -68 -163q-67 -68 -163 -68h-983q-65 0 -111 -46t-46 -112v-453l1329 1v-85z" />
<glyph unicode="3" horiz-adv-x="1490" d="M110 0v85h1039q60 0 103 43t43 104v318q0 60 -43 103t-103 43h-983v85h983q60 0 103 43t43 104v267q0 60 -43 103t-103 43h-1039v85h1039q95 0 163 -68t68 -163v-267q0 -120 -98 -189q98 -70 98 -189v-318q0 -96 -68 -164t-163 -68h-1039z" />
<glyph unicode="4" horiz-adv-x="1970" d="M110 392q0 39 36 64l1290 951q28 19 56 19q18 0 37 -8q53 -25 53 -83v-956h278v-84h-278v-295h-84v295h-1296q-63 0 -85 59q-7 20 -7 38zM195 387l1 -4q2 -4 6 -4h1296v956q0 4 -4 6h-1q-3 0 -9 -3z" />
<glyph unicode="5" horiz-adv-x="1677" d="M110 697v729l1384 -1v-84h-1299v-560h1140q96 0 164 -68q68 -67 68 -163v-318q0 -96 -68 -164t-164 -68h-1212v85h1212q61 0 104 43t43 104v318q0 61 -43 104t-104 43h-1225z" />
<glyph unicode="6" horiz-adv-x="1532" d="M110 232v962q0 96 68 164t163 68h1039v-85h-1039q-60 0 -103 -43t-43 -104v-413h996q96 0 163 -68q68 -68 68 -163v-318q0 -96 -68 -164q-67 -68 -163 -68h-850q-95 0 -163 68t-68 164zM195 232q0 -61 43 -104t103 -43h850q61 0 104 43t43 104v318q0 60 -43 103t-104 43 h-996v-464z" />
<glyph unicode="7" horiz-adv-x="1588" d="M110 1340v85h1272q56 0 82 -45q14 -24 14 -47q0 -26 -18 -51l-930 -1282h-105l966 1332q1 1 1 3q0 1 -1 3t-9 2h-1272z" />
<glyph unicode="8" horiz-adv-x="1604" d="M110 232v318q0 119 98 189q-98 69 -98 189v266q0 96 67 164q68 68 164 68h922q95 0 163 -68t68 -164v-266q0 -120 -99 -189q99 -70 99 -189v-318q0 -96 -68 -164t-163 -68h-922q-96 0 -164 68q-67 68 -67 164zM194 232q0 -61 43 -104t104 -43h922q60 0 103 43t43 104v318 q0 60 -43 103t-103 43h-922q-61 0 -104 -43t-43 -103v-318zM194 928q0 -61 43 -104t104 -43h922q60 0 103 43t43 104v266q0 61 -43 104t-103 43h-922q-61 0 -104 -43t-43 -104v-266z" />
<glyph unicode="9" horiz-adv-x="1533" d="M110 876v318q0 96 68 164t164 68h849q96 0 164 -68t68 -164v-962q0 -96 -68 -164t-164 -68h-1038v85h1038q61 0 104 43t43 104v413h-996q-96 0 -164 68t-68 163zM195 876q0 -60 43 -103t104 -43h996v464q0 61 -43 104t-104 43h-849q-61 0 -104 -43t-43 -104v-318z" />
<glyph unicode=":" horiz-adv-x="314" d="M110 -1v94h94v-94h-94zM110 862v94h94v-94h-94z" />
<glyph unicode=";" horiz-adv-x="314" d="M110 0v94h94v-214h-44q-2 72 -20 120h-30zM110 862v94h94v-94h-94z" />
<glyph unicode="&#x3c;" horiz-adv-x="1113" d="M100 657v104l913 424v-94l-824 -382l824 -382v-93z" />
<glyph unicode="=" horiz-adv-x="1015" d="M110 463v85h795v-85h-795zM110 863v85h795v-85h-795z" />
<glyph unicode="&#x3e;" horiz-adv-x="1113" d="M100 234v93l824 382l-824 382v94l913 -424v-104z" />
<glyph unicode="?" horiz-adv-x="1634" d="M110 1342v85h1183q95 0 163 -68t68 -163v-267q0 -96 -68 -164q-68 -67 -163 -67h-419q-65 0 -112 -47q-46 -46 -46 -111v-295h-84v295q0 100 71 171t171 71h419q60 0 103 43t43 104v267q0 60 -43 103t-103 43h-1183zM630 -1v94h94v-94h-94z" />
<glyph unicode="@" horiz-adv-x="1802" d="M110 713q0 295 231 504t557 209q212 0 388 -93t285 -262q103 -160 118 -346q3 -32 3 -64q0 -150 -63 -289l-1 -1v-1q-33 -80 -117 -129q-78 -45 -165 -45q-26 0 -49 4q-155 30 -167 193q-63 -52 -145 -52h-244q-95 0 -162 67q-67 68 -67 163v348h4q5 90 76 152 q71 63 170 63h205q115 0 184 -72q60 -61 63 -148v-499q0 -113 99 -132q17 -3 35 -3q49 0 101 24q76 36 102 101q56 125 56 260q0 26 -2 53q-13 165 -105 307q-97 151 -254 233q-158 83 -348 83q-291 0 -497 -184q-207 -184 -207 -444t207 -444q206 -184 497 -184 q102 0 199 25l21 -82q-107 -28 -220 -28q-326 0 -557 209t-231 504zM596 571q0 -60 43 -103q42 -42 102 -42h244q60 0 102 42q43 43 43 103v334q0 58 -39 98q-45 46 -124 46h-205q-67 0 -115 -41q-47 -42 -47 -101h-4v-336z" />
<glyph unicode="A" horiz-adv-x="1847" d="M110 0v998q0 177 125 302q126 126 303 126h771q177 0 303 -126q125 -125 125 -302v-998h-85v701h-1457v-701h-85zM195 786h1457v212q0 142 -100 242q-101 101 -243 101h-771q-142 0 -243 -101q-100 -100 -100 -242v-212z" />
<glyph unicode="B" horiz-adv-x="1776" d="M110 0v1194q0 96 68 164t164 68h938q177 0 284 -115q96 -104 96 -251q0 -101 -50 -187q-53 -92 -148 -138q93 -49 148 -139q56 -93 56 -201v-8q0 -160 -113 -273q-113 -114 -273 -114h-1170zM195 85h1085q125 0 213 88q89 89 89 214v8q0 124 -89 213q-88 88 -213 88 h-1085v-611zM195 781h1085q142 0 223 87q73 78 73 192q0 113 -72 191q-82 90 -224 90h-938q-61 0 -104 -43t-43 -104v-413z" />
<glyph unicode="C" horiz-adv-x="1805" d="M110 428v570q0 177 126 302q125 126 302 126h1157v-85h-1157q-142 0 -243 -101q-100 -100 -100 -242v-570q0 -142 100 -242q101 -101 243 -101h1157v-85h-1157q-177 0 -302 126q-126 125 -126 302z" />
<glyph unicode="D" horiz-adv-x="1847" d="M110 0v1194q0 96 68 164t164 68h967q177 0 303 -126q125 -125 125 -302v-570q0 -177 -125 -302q-126 -126 -303 -126h-1199zM195 85h1114q142 0 243 101q101 100 101 242v570q0 142 -101 242q-101 101 -243 101h-967q-61 0 -104 -43t-43 -104v-1109z" />
<glyph unicode="E" horiz-adv-x="1419" d="M110 0v1194q0 96 68 164t163 68h968v-85h-968q-60 0 -103 -43q-44 -43 -44 -104v-413h1115v-85h-1115v-611h1115v-85h-1199z" />
<glyph unicode="F" horiz-adv-x="1420" d="M110 0v1195q0 96 68 164t164 68h968v-85h-968q-61 0 -104 -43t-43 -104v-413h1115v-85h-1115v-697h-85z" />
<glyph unicode="G" horiz-adv-x="1847" d="M110 428v570q0 177 125 302q126 126 303 126h1084v-85h-1084q-142 0 -243 -101q-101 -100 -101 -242v-570q0 -142 101 -242q101 -101 243 -101h771q142 0 242 101q101 100 101 242v268h-739v85h824v-353q0 -177 -126 -302q-125 -126 -302 -126h-771q-177 0 -303 126 q-125 125 -125 302z" />
<glyph unicode="H" horiz-adv-x="1461" d="M110 0v1428h84v-642h1072v642h85v-1428h-85v701h-1072v-701h-84z" />
<glyph unicode="I" horiz-adv-x="345" d="M130 0v1431h85v-1431h-85z" />
<glyph unicode="J" horiz-adv-x="820" d="M110 0v85h282q96 0 165 68q68 69 68 165v1109h85v-1109q0 -131 -93 -225q-94 -93 -225 -93h-282z" />
<glyph unicode="K" d="M110 0v1425h85v-637h1058q96 0 164 68t68 165v404h85v-404q0 -184 -160 -276q160 -91 160 -275v-470h-85v470q0 97 -68 165t-164 68h-1058v-703h-85z" />
<glyph unicode="L" horiz-adv-x="1419" d="M110 232v1195h84v-1195q0 -61 43 -104q44 -43 104 -43h968v-85h-968q-95 0 -163 68t-68 164z" />
<glyph unicode="M" horiz-adv-x="2480" d="M110 0v891q1 221 114 377q113 157 272 157h469q95 0 174 -72q77 -70 115 -185q52 118 138 186q89 71 192 71h468q131 0 225 -128q93 -128 93 -308v-989h-85v989q0 143 -69 247t-164 104h-468q-123 0 -212 -133t-90 -316v-891h-84v989q0 143 -69 247q-70 104 -164 104 h-469q-122 0 -211 -133q-90 -134 -90 -316v-891h-85z" />
<glyph unicode="N" horiz-adv-x="1847" d="M110 0v997q0 177 125 302q126 126 303 126h771q177 0 302 -126q126 -125 126 -302v-996h-85v996q0 142 -101 242q-100 101 -242 101h-771q-142 0 -243 -101q-101 -100 -101 -242v-997h-84z" />
<glyph unicode="O" horiz-adv-x="1847" d="M110 428v570q0 177 125 302q126 126 303 126h771q177 0 302 -126q126 -125 126 -302v-570q0 -177 -126 -302q-125 -126 -302 -126h-771q-177 0 -303 126q-125 125 -125 302zM194 428q0 -142 101 -242q101 -101 243 -101h771q142 0 242 101q101 100 101 242v570 q0 142 -101 242q-100 101 -242 101h-771q-142 0 -243 -101q-101 -100 -101 -242v-570z" />
<glyph unicode="P" horiz-adv-x="1844" d="M110 0v1193q0 96 68 164t164 68h968q197 0 316 -136q108 -123 108 -297t-108 -297q-119 -135 -316 -135h-1115v-560h-85zM195 644h1115q161 0 254 108q85 98 85 240q0 139 -82 237q-94 111 -257 111h-968q-61 0 -104 -43t-43 -104v-549z" />
<glyph unicode="Q" horiz-adv-x="1847" d="M110 428v570q0 177 125 302q126 126 303 126h771q177 0 302 -126q126 -125 126 -302v-570q0 -177 -126 -302q-125 -126 -302 -126h-343v-203h-85v203h-343q-177 0 -303 126q-125 125 -125 302zM194 428q0 -142 101 -242q101 -101 243 -101h343v176h85v-176h343 q142 0 242 101q101 100 101 242v570q0 142 -101 242q-100 101 -242 101h-771q-142 0 -243 -101q-101 -100 -101 -242v-570z" />
<glyph unicode="R" horiz-adv-x="1847" d="M110 0v1195q0 96 68 164t164 68h967q198 0 317 -135q107 -103 107 -246q0 -94 -59 -187q-63 -91 -175 -143q107 -54 172 -155q66 -105 66 -229v-332h-85v332q0 142 -100 243q-101 101 -243 101h-1114v-676h-85zM195 760h1114q164 0 257 91q83 87 83 195q0 109 -83 186 q-93 110 -257 110h-967q-61 0 -104 -43t-43 -104v-435z" />
<glyph unicode="S" horiz-adv-x="1676" d="M110 933v263q0 96 68 164q68 67 163 67h1183v-84h-1183q-60 0 -103 -43t-43 -104v-263q0 -60 43 -103t103 -43h983q100 0 171 -71t71 -171v-302q0 -101 -71 -172t-171 -71h-1172v85h1172q65 0 111 46q47 47 47 112v302q0 65 -47 111q-46 46 -111 46h-983q-95 0 -163 68 t-68 163z" />
<glyph unicode="T" horiz-adv-x="1495" d="M110 1342v85h1275v-85h-595v-1342h-85v1342h-595z" />
<glyph unicode="U" horiz-adv-x="1847" d="M110 428v997h85v-997q0 -142 100 -242q101 -101 243 -101h771q142 0 243 101q100 100 100 242v997h85v-997q0 -177 -125 -302q-126 -126 -303 -126h-771q-177 0 -302 126q-126 125 -126 302z" />
<glyph unicode="V" horiz-adv-x="1992" d="M10 1426h94l473 -944l45 -78q92 -166 148 -224q93 -96 224 -96h7q134 0 234 116q60 70 155 261l10 20l487 945h95l-517 -1003q-102 -205 -174 -286q-122 -137 -290 -137h-7q-163 0 -277 115q-69 68 -169 248q-29 52 -44 78l-1 2z" />
<glyph unicode="W" horiz-adv-x="2669" d="M110 428v999h84v-999q0 -142 101 -242q101 -101 243 -101h411q142 0 242 101q101 100 101 242v999h85v-999q0 -142 100 -242q101 -101 243 -101h411q142 0 243 101q100 100 100 242v999h85v-999q0 -177 -125 -302q-126 -126 -303 -126h-411q-125 0 -231 68 q-102 66 -155 175q-52 -109 -155 -175q-105 -68 -230 -68h-411q-177 0 -303 126q-125 125 -125 302z" />
<glyph unicode="X" horiz-adv-x="1915" d="M110 0v388q0 112 59 208q56 94 152 146q-95 47 -152 136q-59 92 -59 202v347h87v-347q0 -120 85 -205t205 -85h941q120 0 205 85t85 205v347h87v-347q0 -110 -59 -202q-57 -89 -152 -136q96 -52 152 -146q59 -96 59 -208v-388h-87v388q0 130 -93 222q-92 93 -223 93h-889 q-131 0 -223 -93q-93 -92 -93 -222v-388h-87z" />
<glyph unicode="Y" horiz-adv-x="1847" d="M110 1029v396h85v-396q0 -142 100 -243q101 -100 243 -100h771q142 0 243 100q100 101 100 243v396h85v-997q0 -177 -125 -302q-126 -126 -303 -126h-1157v85h1157q142 0 243 101q100 100 100 242v346q-128 -173 -343 -173h-771q-177 0 -303 126q-125 125 -125 302z" />
<glyph unicode="Z" horiz-adv-x="1670" d="M110 225v17q0 87 60 144q35 33 124 81l21 11l1001 543q162 88 162 154v17q0 59 -42 111q-41 41 -100 41h-1147v82h1147q93 0 158 -65q66 -76 66 -169v-17q0 -116 -205 -226l-1023 -555q-76 -41 -102 -64q-38 -34 -38 -88v-17q0 -59 42 -101q41 -41 100 -41h1147v-83 h-1147q-93 0 -158 66q-66 66 -66 159z" />
<glyph unicode="[" horiz-adv-x="544" d="M110 -400v1826h324v-85h-239v-1656h239v-85h-324z" />
<glyph unicode="\" horiz-adv-x="782" d="M11 1426h89l666 -1783h-90z" />
<glyph unicode="]" horiz-adv-x="544" d="M110 -315h239v1656h-239v85h324v-1826h-324v85z" />
<glyph unicode="^" horiz-adv-x="1203" d="M100 855l464 560h76l463 -560h-109l-392 474l-391 -474h-111z" />
<glyph unicode="_" horiz-adv-x="1175" d="M-10 2h1195v-85h-1195v85z" />
<glyph unicode="`" horiz-adv-x="709" d="M134 1346h139l164 -271h-89z" />
<glyph unicode="a" d="M110 267v15q0 122 86 194q87 73 231 73h826q146 0 232 -74v181q0 86 -70 151q-69 65 -162 65h-1024v84h1024q129 0 223 -89t94 -211v-374q-1 -130 -86 -206t-231 -76h-826q-144 0 -231 73q-86 73 -86 194zM195 267q0 -109 96 -154q58 -28 136 -28h826q84 0 142 32 q90 50 90 166q0 108 -96 154q-58 27 -136 27h-826q-78 0 -136 -28q-96 -45 -96 -154v-15z" />
<glyph unicode="b" d="M110 387v1040h85v-616q116 145 301 145h756q132 0 225 -93t93 -224v-321q0 -131 -93 -225q-93 -93 -225 -93h-756q-160 0 -273 114q-113 113 -113 273zM195 387q0 -125 88 -214q88 -88 213 -88h756q97 0 165 68q68 69 68 165v321q0 96 -68 164q-68 69 -165 69h-756 q-125 0 -213 -89q-88 -88 -88 -213v-183z" />
<glyph unicode="c" horiz-adv-x="1494" d="M110 387v183q0 160 114 273q113 113 273 113h887v-84h-887q-125 0 -214 -89q-88 -88 -88 -213v-183q0 -125 88 -214q89 -88 214 -88h887v-85h-887q-160 0 -273 114q-114 113 -114 273z" />
<glyph unicode="d" d="M110 318v321q0 131 93 224t225 93h756q185 0 302 -145v616h84v-1040q0 -160 -113 -273q-113 -114 -273 -114h-756q-132 0 -225 93q-93 94 -93 225zM195 318q0 -96 68 -165q68 -68 165 -68h756q125 0 213 88q89 89 89 214v183q-1 125 -89 213q-88 89 -213 89h-756 q-97 0 -165 -69q-68 -68 -68 -164v-321z" />
<glyph unicode="e" d="M110 318v321q0 131 93 224t225 93h756q160 0 273 -113t113 -273v-98h-1375v-154q0 -96 68 -165q68 -68 165 -68h1100v-85h-1100q-132 0 -225 93q-93 94 -93 225zM195 557h1291v13q0 125 -89 213q-88 89 -213 89h-756q-97 0 -165 -69q-68 -68 -68 -164v-82z" />
<glyph unicode="f" horiz-adv-x="1057" d="M110 0v1109q0 132 93 225t224 93h520v-85h-520q-96 0 -165 -68q-68 -68 -68 -165v-421h714v-84h-714v-604h-84z" />
<glyph unicode="g" d="M110 317v321q0 131 93 224t225 93h756q160 0 273 -113t113 -273v-678q0 -131 -93 -224t-224 -93h-1101v85h1101q96 0 164 68t68 164v254q-116 -146 -301 -146h-756q-132 0 -225 93q-93 94 -93 225zM195 317q0 -96 68 -165q68 -68 165 -68h756q125 0 213 88q88 89 88 214 v183q0 125 -88 213q-88 89 -213 89h-756q-97 0 -165 -69q-68 -68 -68 -164v-321z" />
<glyph unicode="h" d="M110 0v1427h85v-616q116 145 301 145h757q131 0 224 -93t93 -224v-639h-84v639q0 96 -69 164q-68 69 -164 69h-757q-124 0 -213 -89q-88 -88 -88 -213v-570h-85z" />
<glyph unicode="i" horiz-adv-x="344" d="M125 1332v94h94v-94h-94zM130 0v956h84v-956h-84z" />
<glyph unicode="j" horiz-adv-x="361" d="M-370 -341h283q96 0 164 68q69 68 69 164v1066h84v-1066q0 -131 -93 -224t-224 -93h-283v85zM137 1332v94h94v-94h-94z" />
<glyph unicode="k" d="M110 0v1425h84v-570q95 102 233 102h825q147 0 235 -98q80 -89 80 -215q0 -188 -153 -274q156 -92 156 -272v-98h-85v98q0 96 -68 164q-68 69 -165 69h-1058v-331h-84zM194 415h1058q110 0 173 71q57 64 57 158q0 92 -55 156q-64 73 -175 73h-825q-96 0 -164 -69 q-69 -68 -69 -164v-225z" />
<glyph unicode="l" horiz-adv-x="630" d="M110 318v1109h84v-1109q0 -96 68 -165q69 -68 165 -68h93v-85h-93q-131 0 -224 93q-93 94 -93 225z" />
<glyph unicode="m" horiz-adv-x="2479" d="M110 0v571q0 160 113 273q114 113 273 113h469q183 0 275 -159q92 159 275 159h537q131 0 224 -93t93 -224v-640h-84v640q0 96 -68 164q-69 69 -165 69h-537q-96 0 -165 -69q-68 -68 -68 -164v-640h-85v640q0 96 -68 164q-68 69 -164 69h-469q-124 0 -213 -89 q-88 -88 -88 -213v-571h-85z" />
<glyph unicode="n" d="M110 0v576q2 158 115 270q112 111 271 111h756q131 0 225 -93q93 -93 93 -224v-640h-85v640q0 96 -68 164q-69 69 -165 69h-756q-125 0 -213 -89q-89 -88 -89 -213v-571h-84z" />
<glyph unicode="o" d="M110 315v327q0 130 92 222t222 92h832q130 0 222 -92t92 -222v-327q0 -130 -92 -223q-92 -92 -222 -92h-832q-130 0 -222 92q-92 93 -92 223zM194 315q0 -95 68 -163q67 -67 162 -67h832q95 0 162 67q67 68 67 163v327q0 95 -67 162q-67 68 -162 68h-832q-95 0 -162 -68 q-68 -67 -68 -162v-327z" />
<glyph unicode="p" d="M110 -427v1013q6 155 118 262q112 108 268 108h756q131 0 224 -93q94 -93 94 -224v-321q0 -131 -94 -225q-93 -93 -224 -93h-756q-185 0 -302 146v-573h-84zM194 386q0 -124 89 -213q88 -88 213 -88h756q96 0 165 68q68 69 68 165v321q0 96 -68 164q-69 69 -165 69h-756 q-125 0 -213 -89q-89 -88 -89 -213v-184z" />
<glyph unicode="q" d="M110 319v321q0 131 93 224t224 93h756q156 0 268 -108q112 -107 119 -262v-1013h-85v573q-116 -146 -302 -146h-756q-131 0 -224 93q-93 94 -93 225zM194 319q0 -96 68 -165q69 -68 165 -68h756q125 0 213 88q89 89 89 213v184q0 125 -89 213q-88 89 -213 89h-756 q-96 0 -165 -69q-68 -68 -68 -164v-321z" />
<glyph unicode="r" horiz-adv-x="1366" d="M110 0v642q0 130 92 222t222 92h832v-84h-832q-95 0 -162 -68q-67 -67 -67 -162v-642h-85z" />
<glyph unicode="s" horiz-adv-x="1677" d="M110 702q0 102 80 174q87 80 232 80h1018v-84l-1017 -1q-110 0 -173 -54q-55 -47 -55 -115q0 -67 55 -115q63 -54 173 -54h831q146 0 233 -83q80 -76 80 -183t-80 -183q-87 -84 -233 -84h-1101v85h1101q110 0 173 58q55 51 55 124t-55 124q-63 58 -173 58h-831 q-146 0 -233 79q-80 72 -80 174z" />
<glyph unicode="t" horiz-adv-x="772" d="M110 872v84h141v471h85v-471h326v-84h-326v-554q0 -96 68 -165q69 -68 165 -68h93v-85h-93q-131 0 -224 93q-94 94 -94 225v554h-141z" />
<glyph unicode="u" d="M110 315v643h84v-643q0 -95 68 -163q67 -67 162 -67h832q95 0 162 67q67 68 67 163v643h85v-643q0 -130 -92 -223q-92 -92 -222 -92h-832q-130 0 -222 92q-92 93 -92 223z" />
<glyph unicode="v" horiz-adv-x="1399" d="M10 956h95l322 -626q64 -128 102 -172q62 -74 146 -74h50q84 0 147 73q38 45 101 173l321 626h95l-341 -664q-70 -141 -120 -197q-85 -95 -203 -95h-50q-117 0 -202 95q-50 56 -121 197z" />
<glyph unicode="w" horiz-adv-x="2093" d="M110 428v530h84v-530q0 -142 101 -242q101 -101 243 -101h123q142 0 242 101q101 100 101 242v530h85v-530q0 -142 100 -242q101 -101 243 -101h123q142 0 243 101q100 100 100 242v530h85v-530q0 -177 -125 -302q-126 -126 -303 -126h-123q-125 0 -230 68 q-103 66 -156 175q-52 -109 -155 -175q-105 -68 -230 -68h-123q-177 0 -303 126q-125 125 -125 302z" />
<glyph unicode="x" horiz-adv-x="1650" d="M110 0v270q0 142 118 222q-118 74 -118 213v251h85v-251q0 -69 49 -118t118 -49h926q69 0 119 49q49 49 49 118v251h84v-251q0 -144 -125 -217q125 -84 125 -218v-270h-84v270q0 79 -74 137q-61 46 -110 46h-894q-76 0 -130 -54q-53 -53 -53 -129v-270h-85z" />
<glyph unicode="y" horiz-adv-x="1663" d="M122 956h104l605 -843l606 843h104l-676 -939l-231 -316q-93 -127 -267 -127q-90 0 -167 42l41 74q57 -31 123 -31q27 0 55 5q96 18 147 87l213 291z" />
<glyph unicode="z" horiz-adv-x="1606" d="M110 165v5q0 61 59 102q35 24 123 57l20 8l952 362q147 56 147 88v4q0 30 -37 55q-39 26 -95 26h-1090v84h1090q90 0 153 -48q64 -48 64 -117v-4q0 -91 -202 -167l-973 -370q-126 -47 -126 -80v-5q0 -30 37 -54q39 -26 95 -26h1090v-85h-1090q-90 0 -153 49 q-64 48 -64 116z" />
<glyph unicode="{" horiz-adv-x="740" d="M110 514l57 36q102 64 126 132q11 31 11 98q0 34 -3 77q-5 287 -5 340q0 95 68 162t163 67h103v-84h-103q-60 0 -103 -43q-43 -42 -43 -102q0 -50 5 -334q3 -48 3 -86q0 -67 -9 -103q-23 -89 -117 -160q94 -72 117 -160q9 -36 9 -103q0 -38 -3 -86q-5 -284 -5 -334 q0 -60 43 -103q43 -42 103 -42h103v-85h-103q-95 0 -163 68q-68 67 -68 162q0 52 5 339q3 43 3 77q0 68 -11 99q-24 67 -126 132z" />
<glyph unicode="|" horiz-adv-x="305" d="M110 -413v1840h85v-1840h-85z" />
<glyph unicode="}" horiz-adv-x="740" d="M110 -314h103q60 0 103 42q43 43 43 103q0 50 -5 334q-3 48 -3 86q0 67 9 103q23 88 117 160q-94 71 -117 160q-9 36 -9 103q0 38 3 86q5 284 5 334q0 60 -43 102q-43 43 -103 43h-103v84h103q95 0 163 -67t68 -162q0 -53 -5 -340q-3 -43 -3 -77q0 -67 11 -98 q24 -68 126 -132l57 -36l-57 -36q-102 -65 -126 -132q-11 -31 -11 -99q0 -34 3 -77q5 -287 5 -339q0 -95 -68 -162q-68 -68 -163 -68h-103v85z" />
<glyph unicode="~" horiz-adv-x="1229" d="M125 613v99q91 85 194 86h3q85 0 229 -51q142 -49 225 -52h9q131 0 276 73l36 21v-100q-151 -82 -311 -82h-19q-102 3 -265 60q-121 42 -177 42h-5q-89 -2 -183 -84z" />
<glyph unicode="&#xa1;" horiz-adv-x="305" d="M104 862v94h94v-94h-94zM107 -468v976h85v-976h-85z" />
<glyph unicode="&#xa2;" horiz-adv-x="960" d="M110 480v218q0 154 120 262q121 109 291 109q34 0 67 -5l27 115l82 -19l-27 -117q99 -34 167 -107l-62 -58q-50 54 -124 82l-177 -762q26 -4 47 -4q165 0 264 117l65 -54q-124 -147 -329 -147q-33 0 -66 5l-27 -115l-82 19l27 116q-117 41 -189 134q-74 95 -74 211z M194 480q0 -87 56 -159q53 -70 142 -103l177 763q-27 3 -48 3q-135 0 -231 -84q-96 -83 -96 -202v-218z" />
<glyph unicode="&#xa3;" horiz-adv-x="1250" d="M110 88q0 24 20 44q20 21 61 61q97 97 130 147q52 79 56 175v8q0 54 -25 152h-225v85h201q-1 2 -3 8q-2 5 -3 8l-1 5q-54 178 -54 297v20q5 130 115 221q106 89 260 89q145 0 247 -86q52 -44 81 -104l-75 -38q-22 45 -61 77q-78 67 -192 67q-123 0 -206 -70 q-81 -67 -84 -160v-19q0 -105 50 -270l1 -4q8 -25 13 -41h261v-85h-238q23 -94 23 -154v-9q-5 -118 -68 -215q-38 -59 -144 -164l-19 -19q20 4 58 12q86 18 167 18q75 0 146 -15q208 -45 280 -45q85 0 225 59l33 -78q-156 -65 -258 -65q-81 0 -298 46q-62 13 -128 13 q-72 0 -149 -16q-72 -15 -119 -23q-7 -1 -13 -1q-37 0 -56 36q-9 17 -9 33z" />
<glyph unicode="&#xa4;" horiz-adv-x="1238" d="M110 484q0 175 119 310l-106 100l58 62l109 -103q143 114 329 114t329 -114l109 103l58 -62l-106 -100q119 -135 119 -310q0 -176 -119 -311l106 -100l-58 -61l-109 103q-143 -115 -329 -115t-329 115l-109 -103l-58 61l106 100q-119 135 -119 311zM195 484 q0 -165 124 -282q125 -117 300 -117q176 0 300 117q125 117 125 282t-125 282q-124 117 -300 117q-175 0 -300 -117q-124 -117 -124 -282z" />
<glyph unicode="&#xa5;" horiz-adv-x="1602" d="M110 1312l63 56l628 -708l627 708l64 -56l-597 -673h181v-85h-233v-168h233v-85h-233v-301h-85v301h-232v85h232v168h-232v85h181z" />
<glyph unicode="&#xa6;" horiz-adv-x="304" d="M110 0v561h84v-561h-84zM110 771v569h84v-569h-84z" />
<glyph unicode="&#xa7;" horiz-adv-x="1111" d="M100 543q0 122 61 207q14 19 82 67q-143 120 -143 272q0 122 62 207q71 99 193 99h516v-85h-481q-103 0 -156 -93q-34 -65 -34 -138q0 -70 33 -134q50 -93 152 -96h4l361 -1q120 0 192 -92q69 -88 69 -213q0 -156 -152 -276q152 -136 152 -306q0 -135 -70 -235 q-72 -104 -191 -104h-605v85h570q91 0 144 83q52 82 52 181q0 79 -39 157q-54 108 -157 108h-360q-117 0 -188 93q-67 88 -67 214zM190 543q0 -60 34 -124q52 -97 156 -97h345q91 0 145 72q51 67 51 149q0 63 -37 128q-53 93 -159 93h-352q-85 -3 -134 -72t-49 -149z" />
<glyph unicode="&#xa8;" horiz-adv-x="764" d="M130 1222v104h104v-104h-104zM530 1222v104h104v-104h-104z" />
<glyph unicode="&#xa9;" horiz-adv-x="1645" d="M110 713q0 295 208 504q209 209 504 209t504 -209t209 -504t-209 -504t-504 -209t-504 209q-208 209 -208 504zM194 713q0 -260 184 -444t444 -184t444 184t184 444t-184 444t-444 184t-444 -184t-184 -444zM491 564v293q0 99 70 169q71 71 170 71h306v-85h-306 q-64 0 -110 -45q-45 -46 -45 -110v-293q0 -64 45 -110q46 -45 110 -45h306v-85h-306q-99 0 -170 71q-70 70 -70 169z" />
<glyph unicode="&#xaa;" horiz-adv-x="1184" d="M110 1013v9q0 73 57 116q57 44 152 44h545q97 0 154 -45v109q0 52 -47 91q-45 39 -107 39h-675v50h675q86 0 148 -53q62 -54 62 -127v-224q-1 -78 -57 -124t-153 -46h-545q-95 0 -152 44t-57 117zM166 1013q0 -66 63 -93q39 -17 90 -17h545q56 0 94 20q60 30 60 99 q0 65 -64 93q-38 16 -90 16h-545q-51 0 -90 -17q-63 -27 -63 -92v-9z" />
<glyph unicode="&#xab;" horiz-adv-x="990" d="M10 484l397 484h119l-396 -484l395 -484h-118zM464 484l397 484h119l-396 -484l395 -484h-118z" />
<glyph unicode="&#xac;" horiz-adv-x="990" d="M100 647v90h790v-461l-1 -1h-88v372h-701z" />
<glyph unicode="&#xad;" horiz-adv-x="1015" d="M110 663v85h795v-85h-795z" />
<glyph unicode="&#xae;" horiz-adv-x="1645" d="M110 713q0 295 209 504q208 209 503 209t504 -209t209 -504t-209 -504t-504 -209t-503 209q-209 209 -209 504zM194 713q0 -260 184 -444q185 -184 444 -184q260 0 444 184t184 444t-184 444t-444 184q-259 0 -444 -184q-184 -184 -184 -444zM490 369v591q0 58 41 99 q40 40 98 40h353q111 0 178 -75q60 -69 60 -166q0 -132 -100 -201q102 -72 102 -196v-92h-85v92q0 64 -45 110q-46 45 -110 45h-408v-247h-84zM574 701h408q74 0 116 49q38 43 38 108q0 64 -38 108q-42 49 -116 49h-353q-23 0 -39 -16t-16 -39v-259z" />
<glyph unicode="&#xaf;" horiz-adv-x="1015" d="M110 1214v85h795v-85h-795z" />
<glyph unicode="&#xb0;" horiz-adv-x="771" d="M100 1123q0 117 84 201t202 84q117 0 201 -84t84 -201q0 -118 -84 -202t-201 -84q-118 0 -202 84t-84 202zM183 1123q0 -84 59.5 -143t143.5 -59q83 0 142 59t59 143q0 83 -59 142t-142 59q-84 0 -143.5 -59t-59.5 -142z" />
<glyph unicode="&#xb1;" horiz-adv-x="1215" d="M110 0v85h995v-85h-995zM110 667v85h455v399h85v-399h455v-85h-455v-399h-85v399h-455z" />
<glyph unicode="&#xb2;" horiz-adv-x="1272" d="M140 435v370q0 73 52 125q51 52 125 52h645q32 0 55 23t23 55v176q0 32 -23 55t-55 23h-797v91h797q70 0 119 -49q51 -50 51 -120v-176q0 -70 -51 -120q-49 -49 -119 -49h-645q-36 0 -61 -25q-25 -26 -25 -61v-280l901 1v-91h-992z" />
<glyph unicode="&#xb3;" horiz-adv-x="1177" d="M140 435v90h727q33 0 55 23q24 24 24 56v208q0 33 -24 56q-22 23 -55 23h-690v91h690q33 0 55 23q24 23 24 56v175q0 32 -24 55q-22 23 -55 23h-727v91h727q70 0 121 -49q49 -50 49 -120v-175q0 -68 -54 -125q54 -56 54 -124v-208q0 -70 -49 -120q-51 -49 -121 -49h-727z " />
<glyph unicode="&#xb4;" horiz-adv-x="709" d="M271 1075l164 271h139l-214 -271h-89z" />
<glyph unicode="&#xb5;" horiz-adv-x="1562" d="M110 0v1324h85v-335q0 -209 172 -357t414 -148q243 0 415 148t172 357v335h84v-883h-84v261q-88 -138 -242 -219q-159 -84 -345 -84t-345 84q-154 81 -241 219v-702h-85z" />
<glyph unicode="&#xb6;" horiz-adv-x="1003" d="M110 971q0 152 113 264q112 113 280 130l4 -41v42h386v-84h-115v-1282h-85v1282h-144v-1282h-84v582q-154 28 -254 137q-101 109 -101 252z" />
<glyph unicode="&#xb7;" horiz-adv-x="665" d="M110 673v80h80v-80h-80z" />
<glyph unicode="&#xb8;" horiz-adv-x="589" d="M183 -326h187q76 2 76 78q0 42 -21.5 60t-52.5 18h-96q-14 0 -26 11q-11 11 -11 25q0 5 2 11l33 124h79l-25 -101q12 1 24 1q74 0 115 -28q55 -41 55 -121q0 -62 -44 -106q-44 -46 -108 -46h-187v74z" />
<glyph unicode="&#xb9;" horiz-adv-x="670" d="M144 1043l249 333q15 20 39 27q9 3 20 3q14 0 28 -5q50 -20 50 -73v-893h-91v851l-222 -298z" />
<glyph unicode="&#xba;" horiz-adv-x="1184" d="M110 1041v197q0 78 61 133q60 55 146 55h549q86 0 147 -55t61 -133v-197q0 -78 -61 -133q-61 -56 -147 -56h-549q-86 0 -146 56q-61 55 -61 133zM165 1041q0 -57 45 -97q45 -41 107 -41h549q63 0 107 41q45 40 45 97v197q0 57 -45 97q-44 41 -107 41h-549q-62 0 -107 -41 q-45 -40 -45 -97v-197z" />
<glyph unicode="&#xbb;" horiz-adv-x="990" d="M10 968h119l397 -484l-397 -484h-118l395 484zM464 968h119l397 -484l-397 -484h-118l395 484z" />
<glyph unicode="&#xbc;" horiz-adv-x="2222" d="M144 1043l249 333q15 20 39 27q9 3 20 3q14 0 28 -5q50 -20 50 -73v-893h-91v851l-222 -298zM370 -41l1056 1485h82l-1056 -1485h-82zM971 299q0 10 4 22q7 24 27 38l846 596q23 16 47 16q16 0 32 -7q45 -22 45 -70v-582h210v-91h-210v-221h-91v221h-832q-54 0 -72 50 q-6 14 -6 28zM1091 318h794v556z" />
<glyph unicode="&#xbd;" horiz-adv-x="2450" d="M144 1043l249 333q15 20 39 27q9 3 20 3q14 0 28 -5q50 -20 50 -73v-893h-91v851l-222 -298zM370 -41l1056 1485h82l-1056 -1485h-82zM1318 0v370q0 73 52 125q51 52 125 52h645q32 0 55 23t23 55v176q0 32 -23 55t-55 23h-797v91h797q70 0 119 -49q51 -50 51 -120v-176 q0 -70 -51 -120q-49 -49 -119 -49h-645q-36 0 -61 -25q-25 -26 -25 -61v-280l901 1v-91h-992z" />
<glyph unicode="&#xbe;" horiz-adv-x="2846" d="M140 435v90h727q33 0 55 23q24 24 24 56v208q0 33 -24 56q-22 23 -55 23h-690v91h690q33 0 55 23q24 23 24 56v175q0 32 -24 55q-22 23 -55 23h-727v91h727q70 0 121 -49q49 -50 49 -120v-175q0 -68 -54 -125q54 -56 54 -124v-208q0 -70 -49 -120q-51 -49 -121 -49h-727z M877 -41l1056 1485h82l-1056 -1485h-82zM1595 299q0 10 4 22q7 24 27 38l846 596q23 16 47 16q16 0 32 -7q45 -21 45 -70v-582h210v-91h-210v-221h-91v221h-832q-54 0 -73 51q-5 13 -5 27zM1714 318h795v556z" />
<glyph unicode="&#xbf;" horiz-adv-x="1634" d="M110 26q0 96 68 164q68 67 163 67h419q65 0 112 47q46 46 46 111v295h84v-295q0 -100 -71 -171t-171 -71h-419q-60 0 -103 -43t-43 -104v-267q0 -60 43 -103t103 -43h1183v-85h-1183q-95 0 -163 68t-68 163v267zM910 862v94h94v-94h-94z" />
<glyph unicode="&#xc0;" horiz-adv-x="1847" d="M110 0v998q0 177 125 302q126 126 303 126h771q177 0 303 -126q125 -125 125 -302v-998h-85v701h-1457v-701h-85zM195 786h1457v212q0 142 -100 242q-101 101 -243 101h-771q-142 0 -243 -101q-100 -100 -100 -242v-212zM722 1816h139l164 -271h-89z" />
<glyph unicode="&#xc1;" horiz-adv-x="1847" d="M110 0v998q0 177 125 302q126 126 303 126h771q177 0 303 -126q125 -125 125 -302v-998h-85v701h-1457v-701h-85zM195 786h1457v212q0 142 -100 242q-101 101 -243 101h-771q-142 0 -243 -101q-100 -100 -100 -242v-212zM823 1545l164 271h139l-214 -271h-89z" />
<glyph unicode="&#xc2;" horiz-adv-x="1847" d="M110 0v998q0 177 125 302q126 126 303 126h771q177 0 303 -126q125 -125 125 -302v-998h-85v701h-1457v-701h-85zM195 786h1457v212q0 142 -100 242q-101 101 -243 101h-771q-142 0 -243 -101q-100 -100 -100 -242v-212zM618 1518l250 271h112l250 -271h-109l-197 218 l-197 -218h-109z" />
<glyph unicode="&#xc3;" horiz-adv-x="1847" d="M110 0v998q0 177 125 302q126 126 303 126h771q177 0 303 -126q125 -125 125 -302v-998h-85v701h-1457v-701h-85zM195 786h1457v212q0 142 -100 242q-101 101 -243 101h-771q-142 0 -243 -101q-100 -100 -100 -242v-212zM562 1609q25 158 168 168h5q58 0 181 -49 q82 -39 144 -39h8q10 -1 20 -1q102 0 109 87h86q-17 -166 -210 -170h-12q-89 6 -188 46.5t-143 40.5h-7q-60 -10 -68 -83h-93z" />
<glyph unicode="&#xc4;" horiz-adv-x="1847" d="M110 0v998q0 177 125 302q126 126 303 126h771q177 0 303 -126q125 -125 125 -302v-998h-85v701h-1457v-701h-85zM195 786h1457v212q0 142 -100 242q-101 101 -243 101h-771q-142 0 -243 -101q-100 -100 -100 -242v-212zM672 1692v104h104v-104h-104zM1072 1692v104h104 v-104h-104z" />
<glyph unicode="&#xc5;" horiz-adv-x="1847" d="M110 0v998q0 177 125 302q126 126 303 126h771q177 0 303 -126q125 -125 125 -302v-998h-85v701h-1457v-701h-85zM195 786h1457v212q0 142 -100 242q-101 101 -243 101h-771q-142 0 -243 -101q-100 -100 -100 -242v-212zM732 1630q0 80 56 136t136 56q79 0 135.5 -56 t56.5 -136t-56.5 -136t-135.5 -56q-80 0 -136 56t-56 136zM803 1630q0 -49 35 -85t86 -36q49 0 85 36t36 85q0 50 -36 85.5t-85 35.5q-51 0 -86 -35.5t-35 -85.5z" />
<glyph unicode="&#xc6;" horiz-adv-x="2432" d="M110 0v998q0 177 126 302q125 126 302 126h339q221 0 349 -181q18 78 81 129q63 52 145 52h880v-85h-880q-60 0 -104 -43q-43 -43 -43 -104v-413h1027v-85h-1027v-611h1027v-85h-1111v696h-1026v-696h-85zM195 781h1026v217q0 142 -101 242q-101 101 -243 101h-339 q-142 0 -242 -101q-101 -100 -101 -242v-217z" />
<glyph unicode="&#xc7;" horiz-adv-x="1805" d="M110 428v570q0 177 126 302q125 126 302 126h1157v-85h-1157q-142 0 -243 -101q-100 -100 -100 -242v-570q0 -142 100 -242q101 -101 243 -101h1157v-85h-642l-25 -100q12 1 24 1q74 0 115 -28q55 -41 55 -121q0 -62 -44 -106q-44 -46 -108 -46h-187v74h187q76 2 76 78 q0 42 -21.5 60t-52.5 18h-96q-14 0 -26 11q-11 11 -11 25q0 5 2 11l33 123h-436q-177 0 -302 126q-126 125 -126 302z" />
<glyph unicode="&#xc8;" horiz-adv-x="1419" d="M110 0v1194q0 96 68 164t163 68h968v-85h-968q-60 0 -103 -43q-44 -43 -44 -104v-413h1115v-85h-1115v-611h1115v-85h-1199zM508 1816h139l164 -271h-89z" />
<glyph unicode="&#xc9;" horiz-adv-x="1419" d="M110 0v1194q0 96 68 164t163 68h968v-85h-968q-60 0 -103 -43q-44 -43 -44 -104v-413h1115v-85h-1115v-611h1115v-85h-1199zM609 1545l164 271h139l-214 -271h-89z" />
<glyph unicode="&#xca;" horiz-adv-x="1419" d="M110 0v1194q0 96 68 164t163 68h968v-85h-968q-60 0 -103 -43q-44 -43 -44 -104v-413h1115v-85h-1115v-611h1115v-85h-1199zM404 1518l250 271h112l250 -271h-109l-197 218l-197 -218h-109z" />
<glyph unicode="&#xcb;" horiz-adv-x="1419" d="M110 0v1194q0 96 68 164t163 68h968v-85h-968q-60 0 -103 -43q-44 -43 -44 -104v-413h1115v-85h-1115v-611h1115v-85h-1199zM458 1692v104h104v-104h-104zM858 1692v104h104v-104h-104z" />
<glyph unicode="&#xcc;" horiz-adv-x="403" d="M0 1816h139l164 -271h-89zM159 0v1431h85v-1431h-85z" />
<glyph unicode="&#xcd;" horiz-adv-x="403" d="M100 1545l164 271h139l-214 -271h-89zM158 0v1431h85v-1431h-85z" />
<glyph unicode="&#xce;" horiz-adv-x="462" d="M-75 1518l250 271h112l250 -271h-109l-197 218l-197 -218h-109zM189 0v1431h85v-1431h-85z" />
<glyph unicode="&#xcf;" horiz-adv-x="464" d="M-20 1692v104h104v-104h-104zM190 0v1431h85v-1431h-85zM380 1692v104h104v-104h-104z" />
<glyph unicode="&#xd0;" horiz-adv-x="1939" d="M10 668v84h192v442q0 96 68 164t164 68h967q177 0 302 -126q126 -125 126 -302v-570q0 -177 -126 -302q-125 -126 -302 -126h-1199v668h-192zM287 85h1114q142 0 243 101q100 100 100 242v570q0 142 -100 242q-101 101 -243 101h-967q-61 0 -104 -43t-43 -104v-442h291 v-84h-291v-583z" />
<glyph unicode="&#xd1;" horiz-adv-x="1847" d="M110 0v997q0 177 125 302q126 126 303 126h771q177 0 302 -126q126 -125 126 -302v-996h-85v996q0 142 -101 242q-100 101 -242 101h-771q-142 0 -243 -101q-101 -100 -101 -242v-997h-84zM563 1609q25 158 168 168h5q58 0 181 -49q82 -39 144 -39h8q10 -1 20 -1 q102 0 109 87h86q-17 -166 -210 -170h-12q-89 6 -188 46.5t-143 40.5h-7q-60 -10 -68 -83h-93z" />
<glyph unicode="&#xd2;" horiz-adv-x="1847" d="M110 428v570q0 177 125 302q126 126 303 126h771q177 0 302 -126q126 -125 126 -302v-570q0 -177 -126 -302q-125 -126 -302 -126h-771q-177 0 -303 126q-125 125 -125 302zM194 428q0 -142 101 -242q101 -101 243 -101h771q142 0 242 101q101 100 101 242v570 q0 142 -101 242q-100 101 -242 101h-771q-142 0 -243 -101q-101 -100 -101 -242v-570zM722 1816h139l164 -271h-89z" />
<glyph unicode="&#xd3;" horiz-adv-x="1847" d="M110 428v570q0 177 125 302q126 126 303 126h771q177 0 302 -126q126 -125 126 -302v-570q0 -177 -126 -302q-125 -126 -302 -126h-771q-177 0 -303 126q-125 125 -125 302zM194 428q0 -142 101 -242q101 -101 243 -101h771q142 0 242 101q101 100 101 242v570 q0 142 -101 242q-100 101 -242 101h-771q-142 0 -243 -101q-101 -100 -101 -242v-570zM823 1545l164 271h139l-214 -271h-89z" />
<glyph unicode="&#xd4;" horiz-adv-x="1847" d="M110 428v570q0 177 125 302q126 126 303 126h771q177 0 302 -126q126 -125 126 -302v-570q0 -177 -126 -302q-125 -126 -302 -126h-771q-177 0 -303 126q-125 125 -125 302zM194 428q0 -142 101 -242q101 -101 243 -101h771q142 0 242 101q101 100 101 242v570 q0 142 -101 242q-100 101 -242 101h-771q-142 0 -243 -101q-101 -100 -101 -242v-570zM618 1518l250 271h112l250 -271h-109l-197 218l-197 -218h-109z" />
<glyph unicode="&#xd5;" horiz-adv-x="1847" d="M110 428v570q0 177 125 302q126 126 303 126h771q177 0 302 -126q126 -125 126 -302v-570q0 -177 -126 -302q-125 -126 -302 -126h-771q-177 0 -303 126q-125 125 -125 302zM194 428q0 -142 101 -242q101 -101 243 -101h771q142 0 242 101q101 100 101 242v570 q0 142 -101 242q-100 101 -242 101h-771q-142 0 -243 -101q-101 -100 -101 -242v-570zM563 1609q25 158 168 168h5q58 0 181 -49q82 -39 144 -39h8q10 -1 20 -1q102 0 109 87h86q-17 -166 -210 -170h-12q-89 6 -188 46.5t-143 40.5h-7q-60 -10 -68 -83h-93z" />
<glyph unicode="&#xd6;" horiz-adv-x="1847" d="M110 428v570q0 177 125 302q126 126 303 126h771q177 0 302 -126q126 -125 126 -302v-570q0 -177 -126 -302q-125 -126 -302 -126h-771q-177 0 -303 126q-125 125 -125 302zM194 428q0 -142 101 -242q101 -101 243 -101h771q142 0 242 101q101 100 101 242v570 q0 142 -101 242q-100 101 -242 101h-771q-142 0 -243 -101q-101 -100 -101 -242v-570zM672 1692v104h104v-104h-104zM1072 1692v104h104v-104h-104z" />
<glyph unicode="&#xd7;" horiz-adv-x="1151" d="M110 300l406 405l-406 406l60 60l406 -406l405 406l60 -60l-406 -406l406 -405l-60 -60l-405 406l-406 -406z" />
<glyph unicode="&#xd8;" horiz-adv-x="1847" d="M110 422v570q0 177 125 302q126 126 303 126h748l67 116l73 -42l-46 -80q153 -26 254 -145q103 -120 103 -277v-570q0 -177 -126 -302q-125 -126 -302 -126h-748l-67 -116l-74 42l47 80q-153 26 -255 145q-102 120 -102 277zM195 422q0 -135 92 -234q92 -98 226 -108 l724 1255h-699q-142 0 -243 -101q-100 -100 -100 -242v-570zM610 79h699q142 0 243 101q100 100 100 242v570q0 135 -92 234q-92 98 -226 108z" />
<glyph unicode="&#xd9;" horiz-adv-x="1847" d="M110 428v997h85v-997q0 -142 100 -242q101 -101 243 -101h771q142 0 243 101q100 100 100 242v997h85v-997q0 -177 -125 -302q-126 -126 -303 -126h-771q-177 0 -302 126q-126 125 -126 302zM722 1816h139l164 -271h-89z" />
<glyph unicode="&#xda;" horiz-adv-x="1847" d="M110 428v997h85v-997q0 -142 100 -242q101 -101 243 -101h771q142 0 243 101q100 100 100 242v997h85v-997q0 -177 -125 -302q-126 -126 -303 -126h-771q-177 0 -302 126q-126 125 -126 302zM823 1545l164 271h139l-214 -271h-89z" />
<glyph unicode="&#xdb;" horiz-adv-x="1847" d="M110 428v997h85v-997q0 -142 100 -242q101 -101 243 -101h771q142 0 243 101q100 100 100 242v997h85v-997q0 -177 -125 -302q-126 -126 -303 -126h-771q-177 0 -302 126q-126 125 -126 302zM618 1518l250 271h112l250 -271h-109l-197 218l-197 -218h-109z" />
<glyph unicode="&#xdc;" horiz-adv-x="1847" d="M110 428v997h85v-997q0 -142 100 -242q101 -101 243 -101h771q142 0 243 101q100 100 100 242v997h85v-997q0 -177 -125 -302q-126 -126 -303 -126h-771q-177 0 -302 126q-126 125 -126 302zM672 1692v104h104v-104h-104zM1072 1692v104h104v-104h-104z" />
<glyph unicode="&#xdd;" horiz-adv-x="1847" d="M110 1029v396h85v-396q0 -142 100 -243q101 -100 243 -100h771q142 0 243 100q100 101 100 243v396h85v-997q0 -177 -125 -302q-126 -126 -303 -126h-1157v85h1157q142 0 243 101q100 100 100 242v346q-128 -173 -343 -173h-771q-177 0 -303 126q-125 125 -125 302z M823 1545l164 271h139l-214 -271h-89z" />
<glyph unicode="&#xde;" horiz-adv-x="1296" d="M110 0v1424h85v-327h631q168 0 269 -121q91 -109 91 -264t-89 -263q-101 -122 -271 -122h-631v-327h-85zM195 411h631q130 0 206 92q70 85 70 209q0 120 -67 205q-76 96 -209 96h-631v-602z" />
<glyph unicode="&#xdf;" horiz-adv-x="1110" d="M110 0v1100q0 60 37 128q75 135 266 152q27 3 54 3t54 -3q130 -12 200 -86q68 -72 68 -196v-4q-2 -119 -93 -198q-80 -70 -80 -133v-7q4 -61 78 -110q14 -9 45 -28q128 -80 181 -137q80 -86 80 -188q0 -14 -2 -29q-26 -241 -275 -255h-59q-115 8 -192 71q-77 62 -77 147 h85q0 -54 60 -92q55 -36 129 -41h49q177 10 196 179q1 9 1 18q0 74 -67 142q-44 44 -154 113q-31 20 -46 29q-110 73 -117 175v12q0 103 109 198q63 54 64 135v4q0 179 -191 197q-23 2 -46 2t-46 -2q-140 -12 -196 -101q-30 -46 -30 -97v-1098h-85z" />
<glyph unicode="&#xe0;" d="M110 267v15q0 122 86 194q87 73 231 73h826q146 0 232 -74v181q0 86 -70 151q-69 65 -162 65h-1024v84h1024q129 0 223 -89t94 -211v-374q-1 -130 -86 -206t-231 -76h-826q-144 0 -231 73q-86 73 -86 194zM195 267q0 -109 96 -154q58 -28 136 -28h826q84 0 142 32 q90 50 90 166q0 108 -96 154q-58 27 -136 27h-826q-78 0 -136 -28q-96 -45 -96 -154v-15zM638 1346h139l164 -271h-89z" />
<glyph unicode="&#xe1;" d="M110 267v15q0 122 86 194q87 73 231 73h826q146 0 232 -74v181q0 86 -70 151q-69 65 -162 65h-1024v84h1024q129 0 223 -89t94 -211v-374q-1 -130 -86 -206t-231 -76h-826q-144 0 -231 73q-86 73 -86 194zM195 267q0 -109 96 -154q58 -28 136 -28h826q84 0 142 32 q90 50 90 166q0 108 -96 154q-58 27 -136 27h-826q-78 0 -136 -28q-96 -45 -96 -154v-15zM739 1075l164 271h139l-214 -271h-89z" />
<glyph unicode="&#xe2;" d="M110 267v15q0 122 86 194q87 73 231 73h826q146 0 232 -74v181q0 86 -70 151q-69 65 -162 65h-1024v84h1024q129 0 223 -89t94 -211v-374q-1 -130 -86 -206t-231 -76h-826q-144 0 -231 73q-86 73 -86 194zM195 267q0 -109 96 -154q58 -28 136 -28h826q84 0 142 32 q90 50 90 166q0 108 -96 154q-58 27 -136 27h-826q-78 0 -136 -28q-96 -45 -96 -154v-15zM534 1048l250 271h112l250 -271h-109l-197 218l-197 -218h-109z" />
<glyph unicode="&#xe3;" d="M110 267v15q0 122 86 194q87 73 231 73h826q146 0 232 -74v181q0 86 -70 151q-69 65 -162 65h-1024v84h1024q129 0 223 -89t94 -211v-374q-1 -130 -86 -206t-231 -76h-826q-144 0 -231 73q-86 73 -86 194zM195 267q0 -109 96 -154q58 -28 136 -28h826q84 0 142 32 q90 50 90 166q0 108 -96 154q-58 27 -136 27h-826q-78 0 -136 -28q-96 -45 -96 -154v-15zM480 1139q25 158 167 168h5q58 0 181 -49q82 -39 144 -39h8q10 -1 20 -1q102 0 109 87h86q-17 -166 -210 -170h-12q-88 6 -187.5 46.5t-143.5 40.5h-7q-60 -10 -68 -83h-92z" />
<glyph unicode="&#xe4;" d="M110 267v15q0 122 86 194q87 73 231 73h826q146 0 232 -74v181q0 86 -70 151q-69 65 -162 65h-1024v84h1024q129 0 223 -89t94 -211v-374q-1 -130 -86 -206t-231 -76h-826q-144 0 -231 73q-86 73 -86 194zM195 267q0 -109 96 -154q58 -28 136 -28h826q84 0 142 32 q90 50 90 166q0 108 -96 154q-58 27 -136 27h-826q-78 0 -136 -28q-96 -45 -96 -154v-15zM588 1222v104h104v-104h-104zM988 1222v104h104v-104h-104z" />
<glyph unicode="&#xe5;" d="M110 267v15q0 122 86 194q87 73 231 73h826q146 0 232 -74v181q0 86 -70 151q-69 65 -162 65h-1024v84h1024q129 0 223 -89t94 -211v-374q-1 -130 -86 -206t-231 -76h-826q-144 0 -231 73q-86 73 -86 194zM195 267q0 -109 96 -154q58 -28 136 -28h826q84 0 142 32 q90 50 90 166q0 108 -96 154q-58 27 -136 27h-826q-78 0 -136 -28q-96 -45 -96 -154v-15zM648 1190q0 80 56 136t136 56t136 -56t56 -136t-56 -136t-136 -56t-136 56t-56 136zM719 1190q0 -49 35.5 -85t85.5 -36q49 0 85 36t36 85q0 50 -36 85.5t-85 35.5q-50 0 -85.5 -35.5 t-35.5 -85.5z" />
<glyph unicode="&#xe6;" horiz-adv-x="1797" d="M110 261q0 107 85 183q86 77 206 77h455v170h17l-17 1v5q0 67 -47 116q-58 59 -159 59h-249q-101 0 -163 -69l-63 57q88 96 226 96h249q137 0 219 -84q36 -36 54 -84q124 168 349 168q171 0 293 -108t122 -261v-109h-42v-42h-704v-67q0 -117 97 -201q97 -83 234 -83 q176 0 275 128l67 -52q-124 -161 -342 -161q-226 0 -350 170q-31 -75 -105 -122q-75 -48 -167 -48h-249q-120 0 -206 77q-85 76 -85 184zM195 261q0 -73 60 -124q61 -52 146 -52h249q85 0 146 52q60 51 60 124v175h-455q-85 0 -146 -51q-60 -52 -60 -124zM941 521h661v66 q0 118 -97 201q-97 84 -233 84q-137 0 -234 -84q-97 -83 -97 -201v-66z" />
<glyph unicode="&#xe7;" horiz-adv-x="1494" d="M110 387v183q0 160 114 273q113 113 273 113h887v-84h-887q-125 0 -214 -89q-88 -88 -88 -213v-183q0 -125 88 -214q89 -88 214 -88h887v-85h-537l-25 -100q12 1 24 1q74 0 115 -28q56 -41 56 -121q0 -62 -44 -106q-45 -46 -108 -46h-187v74h187q76 2 76 78 q0 42 -21.5 60t-52.5 18h-96q-15 0 -26 11t-11 25q0 5 1 11l34 123h-272q-160 0 -273 114q-114 113 -114 273z" />
<glyph unicode="&#xe8;" d="M110 318v321q0 131 93 224t225 93h756q160 0 273 -113t113 -273v-98h-1375v-154q0 -96 68 -165q68 -68 165 -68h1100v-85h-1100q-132 0 -225 93q-93 94 -93 225zM195 557h1291v13q0 125 -89 213q-88 89 -213 89h-756q-97 0 -165 -69q-68 -68 -68 -164v-82zM638 1346h139 l164 -271h-89z" />
<glyph unicode="&#xe9;" d="M110 318v321q0 131 93 224t225 93h756q160 0 273 -113t113 -273v-98h-1375v-154q0 -96 68 -165q68 -68 165 -68h1100v-85h-1100q-132 0 -225 93q-93 94 -93 225zM195 557h1291v13q0 125 -89 213q-88 89 -213 89h-756q-97 0 -165 -69q-68 -68 -68 -164v-82zM739 1075 l164 271h139l-214 -271h-89z" />
<glyph unicode="&#xea;" d="M110 318v321q0 131 93 224t225 93h756q160 0 273 -113t113 -273v-98h-1375v-154q0 -96 68 -165q68 -68 165 -68h1100v-85h-1100q-132 0 -225 93q-93 94 -93 225zM195 557h1291v13q0 125 -89 213q-88 89 -213 89h-756q-97 0 -165 -69q-68 -68 -68 -164v-82zM534 1048 l250 271h112l250 -271h-109l-197 218l-197 -218h-109z" />
<glyph unicode="&#xeb;" d="M110 318v321q0 131 93 224t225 93h756q160 0 273 -113t113 -273v-98h-1375v-154q0 -96 68 -165q68 -68 165 -68h1100v-85h-1100q-132 0 -225 93q-93 94 -93 225zM195 557h1291v13q0 125 -89 213q-88 89 -213 89h-756q-97 0 -165 -69q-68 -68 -68 -164v-82zM588 1222v104 h104v-104h-104zM988 1222v104h104v-104h-104z" />
<glyph unicode="&#xec;" horiz-adv-x="363" d="M-50 1346h139l164 -271h-89zM150 0v956h84v-956h-84z" />
<glyph unicode="&#xed;" horiz-adv-x="363" d="M110 1075l164 271h139l-214 -271h-89zM129 0v956h84v-956h-84z" />
<glyph unicode="&#xee;" horiz-adv-x="432" d="M-90 1048l250 271h112l250 -271h-109l-197 218l-197 -218h-109zM174 0v956h84v-956h-84z" />
<glyph unicode="&#xef;" horiz-adv-x="444" d="M-30 1222v104h104v-104h-104zM180 0v956h84v-956h-84zM370 1222v104h104v-104h-104z" />
<glyph unicode="&#xf0;" horiz-adv-x="1053" d="M110 378v223q0 156 121 267q122 111 294 111q192 0 317 -134q-53 281 -254 407l-196 -96l-37 76l138 68q-82 31 -180 41l9 85q152 -16 269 -78l140 69l38 -76l-94 -46q186 -142 245 -419q23 -111 23 -212q0 -33 -2 -64v-222q0 -156 -122 -267t-294 -111t-294 111 q-121 111 -121 267zM194 378q0 -121 97 -207t234 -86t234 86t97 207v223q0 121 -97 207t-234 86t-234 -86t-97 -207v-223z" />
<glyph unicode="&#xf1;" d="M110 0v576q2 158 115 270q112 111 271 111h756q131 0 225 -93q93 -93 93 -224v-640h-85v640q0 96 -68 164q-69 69 -165 69h-756q-125 0 -213 -89q-89 -88 -89 -213v-571h-84zM480 1139q25 158 167 168h5q58 0 181 -49q82 -39 144 -39h8q10 -1 20 -1q102 0 109 87h86 q-17 -166 -210 -170h-12q-88 6 -187.5 46.5t-143.5 40.5h-7q-60 -10 -68 -83h-92z" />
<glyph unicode="&#xf2;" d="M110 315v327q0 130 92 222t222 92h832q130 0 222 -92t92 -222v-327q0 -130 -92 -223q-92 -92 -222 -92h-832q-130 0 -222 92q-92 93 -92 223zM194 315q0 -95 68 -163q67 -67 162 -67h832q95 0 162 67q67 68 67 163v327q0 95 -67 162q-67 68 -162 68h-832q-95 0 -162 -68 q-68 -67 -68 -162v-327zM638 1346h139l164 -271h-89z" />
<glyph unicode="&#xf3;" d="M110 315v327q0 130 92 222t222 92h832q130 0 222 -92t92 -222v-327q0 -130 -92 -223q-92 -92 -222 -92h-832q-130 0 -222 92q-92 93 -92 223zM194 315q0 -95 68 -163q67 -67 162 -67h832q95 0 162 67q67 68 67 163v327q0 95 -67 162q-67 68 -162 68h-832q-95 0 -162 -68 q-68 -67 -68 -162v-327zM739 1075l164 271h139l-214 -271h-89z" />
<glyph unicode="&#xf4;" d="M110 315v327q0 130 92 222t222 92h832q130 0 222 -92t92 -222v-327q0 -130 -92 -223q-92 -92 -222 -92h-832q-130 0 -222 92q-92 93 -92 223zM194 315q0 -95 68 -163q67 -67 162 -67h832q95 0 162 67q67 68 67 163v327q0 95 -67 162q-67 68 -162 68h-832q-95 0 -162 -68 q-68 -67 -68 -162v-327zM534 1048l250 271h112l250 -271h-109l-197 218l-197 -218h-109z" />
<glyph unicode="&#xf5;" d="M110 315v327q0 130 92 222t222 92h832q130 0 222 -92t92 -222v-327q0 -130 -92 -223q-92 -92 -222 -92h-832q-130 0 -222 92q-92 93 -92 223zM194 315q0 -95 68 -163q67 -67 162 -67h832q95 0 162 67q67 68 67 163v327q0 95 -67 162q-67 68 -162 68h-832q-95 0 -162 -68 q-68 -67 -68 -162v-327zM480 1139q25 158 167 168h5q58 0 181 -49q82 -39 144 -39h8q10 -1 20 -1q102 0 109 87h86q-17 -166 -210 -170h-12q-88 6 -187.5 46.5t-143.5 40.5h-7q-60 -10 -68 -83h-92z" />
<glyph unicode="&#xf6;" d="M110 315v327q0 130 92 222t222 92h832q130 0 222 -92t92 -222v-327q0 -130 -92 -223q-92 -92 -222 -92h-832q-130 0 -222 92q-92 93 -92 223zM194 315q0 -95 68 -163q67 -67 162 -67h832q95 0 162 67q67 68 67 163v327q0 95 -67 162q-67 68 -162 68h-832q-95 0 -162 -68 q-68 -67 -68 -162v-327zM588 1222v104h104v-104h-104zM988 1222v104h104v-104h-104z" />
<glyph unicode="&#xf7;" horiz-adv-x="1015" d="M155 655v109h741v-109h-741zM461 227v94h94v-94h-94zM461 1090v94h94v-94h-94z" />
<glyph unicode="&#xf8;" d="M110 318v327q0 130 92 222t222 92h719l94 125l67 -51l-55 -74h7q130 0 222 -92t92 -222v-327q0 -130 -92 -223q-92 -92 -222 -92h-726l-87 -116l-68 51l49 65q-130 0 -222 92q-92 93 -92 223zM195 318q0 -95 67 -163q67 -67 162 -67h64l591 787h-655q-95 0 -162 -68 q-67 -67 -67 -162v-327zM594 88h662q95 0 162 67q67 68 67 163v327q0 95 -67 162q-67 68 -162 68h-71z" />
<glyph unicode="&#xf9;" d="M110 315v643h84v-643q0 -95 68 -163q67 -67 162 -67h832q95 0 162 67q67 68 67 163v643h85v-643q0 -130 -92 -223q-92 -92 -222 -92h-832q-130 0 -222 92q-92 93 -92 223zM638 1346h139l164 -271h-89z" />
<glyph unicode="&#xfa;" d="M110 315v643h84v-643q0 -95 68 -163q67 -67 162 -67h832q95 0 162 67q67 68 67 163v643h85v-643q0 -130 -92 -223q-92 -92 -222 -92h-832q-130 0 -222 92q-92 93 -92 223zM739 1075l164 271h139l-214 -271h-89z" />
<glyph unicode="&#xfb;" d="M110 315v643h84v-643q0 -95 68 -163q67 -67 162 -67h832q95 0 162 67q67 68 67 163v643h85v-643q0 -130 -92 -223q-92 -92 -222 -92h-832q-130 0 -222 92q-92 93 -92 223zM534 1048l250 271h112l250 -271h-109l-197 218l-197 -218h-109z" />
<glyph unicode="&#xfc;" d="M110 315v643h84v-643q0 -95 68 -163q67 -67 162 -67h832q95 0 162 67q67 68 67 163v643h85v-643q0 -130 -92 -223q-92 -92 -222 -92h-832q-130 0 -222 92q-92 93 -92 223zM588 1222v104h104v-104h-104zM988 1222v104h104v-104h-104z" />
<glyph unicode="&#xfd;" horiz-adv-x="1663" d="M122 956h104l605 -843l606 843h104l-676 -939l-231 -316q-93 -127 -267 -127q-90 0 -167 42l41 74q57 -31 123 -31q27 0 55 5q96 18 147 87l213 291zM730 1075l164 271h139l-214 -271h-89z" />
<glyph unicode="&#xfe;" horiz-adv-x="974" d="M110 -427v1853h85v-570q110 128 292 128q152 0 259 -94q118 -104 118 -276v-260q0 -172 -118 -276q-107 -94 -259 -94q-182 0 -292 128v-539h-85zM195 354q0 -137 93 -216q82 -69 199 -69t199 69q93 79 93 216v260q0 137 -93 216q-82 69 -199 69t-199 -69 q-93 -79 -93 -216v-260z" />
<glyph unicode="&#xff;" horiz-adv-x="1663" d="M122 956h104l605 -843l606 843h104l-676 -939l-231 -316q-93 -127 -267 -127q-90 0 -167 42l41 74q57 -31 123 -31q27 0 55 5q96 18 147 87l213 291zM579 1222v104h104v-104h-104zM979 1222v104h104v-104h-104z" />
<glyph unicode="&#x152;" horiz-adv-x="2885" d="M110 428v570q0 177 125 302q126 126 303 126h771q177 0 302 -126q24 -24 43 -50q15 61 62 108q68 68 163 68h968v-85h-968q-60 0 -103 -43q-44 -43 -44 -104l1 -413h1114v-85h-1114l-1 -611h1115v-85h-1199v167q-17 -21 -37 -41q-125 -126 -302 -126h-771 q-177 0 -303 126q-125 125 -125 302zM194 428q0 -142 101 -242q101 -101 243 -101h771q142 0 242 101q81 80 97 187v680q-16 107 -97 187q-100 101 -242 101h-771q-142 0 -243 -101q-101 -100 -101 -242v-570z" />
<glyph unicode="&#x153;" horiz-adv-x="3045" d="M110 315v327q0 130 92 222t222 92h832q130 0 222 -92q30 -30 50 -63q20 33 49 62q93 93 225 93h756q160 0 273 -113t113 -273v-98h-1374v-173q6 -84 67 -146q68 -68 165 -68h1100v-85h-1100q-132 0 -225 93q-29 30 -49 63q-20 -34 -50 -64q-92 -92 -222 -92h-832 q-130 0 -222 92q-92 93 -92 223zM194 315q0 -95 68 -163q67 -67 162 -67h832q95 0 162 67q61 62 67 147q-1 9 -1 19v321q0 10 1 19q-6 85 -67 146q-67 68 -162 68h-832q-95 0 -162 -68q-68 -67 -68 -162v-327zM1570 557h1290v13q0 125 -89 213q-88 89 -213 89h-756 q-97 0 -165 -69q-61 -61 -67 -145v-101z" />
<glyph unicode="&#x178;" horiz-adv-x="1847" d="M110 1029v396h85v-396q0 -142 100 -243q101 -100 243 -100h771q142 0 243 100q100 101 100 243v396h85v-997q0 -177 -125 -302q-126 -126 -303 -126h-1157v85h1157q142 0 243 101q100 100 100 242v346q-128 -173 -343 -173h-771q-177 0 -303 126q-125 125 -125 302z M672 1692v104h104v-104h-104zM1072 1692v104h104v-104h-104z" />
<glyph unicode="&#x2c6;" horiz-adv-x="832" d="M110 1048l250 271h112l250 -271h-109l-197 218l-197 -218h-109z" />
<glyph unicode="&#x2dc;" horiz-adv-x="847" d="M69 1139q25 158 168 168h5q58 0 181 -49q82 -39 144 -39h8q10 -1 20 -1q102 0 109 87h86q-17 -166 -210 -170h-12q-89 6 -188 46.5t-143 40.5h-7q-60 -10 -68 -83h-93z" />
<glyph unicode="&#x2000;" horiz-adv-x="911" />
<glyph unicode="&#x2001;" horiz-adv-x="1822" />
<glyph unicode="&#x2002;" horiz-adv-x="911" />
<glyph unicode="&#x2003;" horiz-adv-x="1822" />
<glyph unicode="&#x2004;" horiz-adv-x="607" />
<glyph unicode="&#x2005;" horiz-adv-x="455" />
<glyph unicode="&#x2006;" horiz-adv-x="303" />
<glyph unicode="&#x2007;" horiz-adv-x="303" />
<glyph unicode="&#x2008;" horiz-adv-x="227" />
<glyph unicode="&#x2009;" horiz-adv-x="364" />
<glyph unicode="&#x200a;" horiz-adv-x="101" />
<glyph unicode="&#x2010;" horiz-adv-x="1015" d="M110 663v85h795v-85h-795z" />
<glyph unicode="&#x2011;" horiz-adv-x="1015" d="M110 663v85h795v-85h-795z" />
<glyph unicode="&#x2012;" horiz-adv-x="1015" d="M110 663v85h795v-85h-795z" />
<glyph unicode="&#x2013;" horiz-adv-x="1039" d="M0 478v85h1039v-85h-1039z" />
<glyph unicode="&#x2014;" horiz-adv-x="1848" d="M0 478v85h1848v-85h-1848z" />
<glyph unicode="&#x2018;" horiz-adv-x="310" d="M100 1118v110q5 83 51 147h59q-46 -65 -48 -147h42v-110h-104z" />
<glyph unicode="&#x2019;" horiz-adv-x="310" d="M100 1118q46 65 48 147h-42v110h104v-110q-5 -83 -51 -147h-59z" />
<glyph unicode="&#x201a;" horiz-adv-x="310" d="M100 -128q46 65 48 147h-42v110h104v-110q-5 -83 -51 -147h-59z" />
<glyph unicode="&#x201c;" horiz-adv-x="464" d="M100 1118v110q5 83 51 147h59q-46 -65 -48 -147h42v-110h-104zM254 1118v110q5 83 51 147h59q-46 -65 -48 -147h42v-110h-104z" />
<glyph unicode="&#x201d;" horiz-adv-x="464" d="M100 1118q46 65 48 147h-42v110h104v-110q-5 -83 -51 -147h-59zM254 1118q46 65 48 147h-42v110h104v-110q-5 -83 -51 -147h-59z" />
<glyph unicode="&#x201e;" horiz-adv-x="464" d="M100 -128q46 65 48 147h-42v110h104v-110q-5 -83 -51 -147h-59zM254 -128q46 65 48 147h-42v110h104v-110q-5 -83 -51 -147h-59z" />
<glyph unicode="&#x2022;" horiz-adv-x="1393" d="M99 827q0 22 15 37q16 16 38 16q21 0 37 -16q15 -15 15 -37t-15 -37q-16 -15 -37 -15q-22 0 -38 15q-15 15 -15 37zM132 541q0 56 69 91q67 34 184 43q-16 -19 -25 -46q-142 -28 -142 -105q0 -79 149 -164q148 -85 359 -126q210 -41 359 -14q71 13 109 40q40 28 40 67 q0 66 -109 139q2 18 -4 50q199 -106 199 -206q0 -45 -47 -78q-45 -31 -127 -46q-174 -32 -420 16t-420 147t-174 192zM144 181q0 22 16 37q15 16 37 16t37 -16q16 -15 16 -37t-16 -37q-15 -16 -37 -16t-37 16q-16 15 -16 37zM350 898q0 10 7 17q7 8 17 8t17 -8q7 -7 7 -17 t-7 -17t-17 -7t-17 7t-7 17zM353 440q0 86 36 163q2 3 3 6t3 6q5 10 11 20l1 2q16 30 28 40l18 20l1 1q2 3 5 5l1 2l3 3l1 1q3 2 5 5l1 1l3 3l1 1q3 2 5 4l2 2l3 2l1 1l3 3l3 3h1l3 2l1 1l3 3l4 3l3 2l1 1l3 2q2 2 4 3l3 2l2 1l3 2l2 2q3 1 5 3l2 1l3 2l2 1q2 2 5 3l2 1l3 2 l3 2q2 1 5 2l2 1l3 2l2 1q3 1 5 3l3 1l3 1l3 2l2 1q3 1 5 2l3 1l3 1l2 1l6 2l2 1l3 1l3 2q2 0 5 1l2 1l4 1l2 1q3 1 5 1l3 1l4 1l2 1q3 1 5 1l2 1q2 1 5 1l2 1q3 0 5 1h2q3 1 6 1l1 1q3 0 5 1h2q3 0 6 1h2q3 1 5 1h2q3 1 6 1h2q2 1 5 1h1q4 0 7 1h7h1h7h1q2 1 6 1h1h7h9 l3 -1h6h3h6l3 -1h7h2q4 -1 9 -1l3 -1h6l3 -1q3 0 6 -1h3q2 -1 6 -2h2q5 -1 9 -2h1q4 -1 7 -2l3 -1q3 -1 5 -1l4 -1q2 -1 5 -2l3 -1q2 0 6 -2h2q4 -2 8 -3l3 -1q3 -1 5 -2l3 -1q2 -1 5 -2l3 -2q2 -1 5 -2l3 -1q4 -2 7 -4l3 -1q2 -1 5 -2l3 -2l4 -2l4 -2q1 -1 4 -2q2 -2 3 -2 q2 -1 5 -3l3 -2l6 -4l3 -2l4 -2l3 -2l4 -3l3 -2q1 -1 4 -3l3 -2q3 -2 6 -5l3 -2t3 -3l3 -3l4 -2l3 -3l3 -3l3 -3q1 0 3 -2l6 -6t2 -2l4 -4l2 -2l4 -4l2 -2q2 -3 3 -4l2 -2q4 -4 7 -9l1 -1l4 -4l1 -2l4 -4l1 -2q2 -3 3 -4l2 -3q2 -3 3 -4l1 -2q4 -5 7 -9l1 -2q1 -2 3 -5l1 -2 q2 -2 3 -4l1 -2q2 -3 3 -5l1 -2q5 -8 9 -17l1 -2q1 -3 3 -5v-2q2 -3 3 -6l1 -1q4 -10 7 -19l1 -1l2 -6l1 -2l2 -6v-2q5 -15 9 -32q4 -21 8 -49q1 -13 2 -27v-9v-4v-2v-1l-1 -3v-3v-1v-2v-1v-1v-2v-2v-2v-1v-1v-3l-1 -1q-6 -86 -49 -160q-139 -20 -329 17q-205 40 -349 122 q-14 8 -29 18q-1 17 -1 33zM377 147q0 14 10 24q10 9 24 9t23 -9q10 -10 10 -24t-10 -23q-9 -10 -23 -10t-24 10q-10 9 -10 23zM394 268q48 -94 137 -150q92 -57 201 -57q130 0 233 79q-116 4 -245 29q-179 35 -326 99zM571 37q0 16 17 16t17 -16q0 -17 -17 -17t-17 17z M600 905q0 10 8 17q7 8 17 8t17 -8q7 -7 7 -17t-7 -17t-17 -7t-17 7q-8 7 -8 17z" />
<glyph unicode="&#x2026;" horiz-adv-x="2048" d="M110 -1v94h94v-94h-94zM793 -1v94h94v-94h-94zM1476 -1v94h94v-94h-94z" />
<glyph unicode="&#x202f;" horiz-adv-x="364" />
<glyph unicode="&#x2039;" horiz-adv-x="536" d="M10 484l397 484h119l-396 -484l395 -484h-118z" />
<glyph unicode="&#x203a;" horiz-adv-x="536" d="M10 968h119l397 -484l-397 -484h-118l395 484z" />
<glyph unicode="&#x205f;" horiz-adv-x="455" />
<glyph unicode="&#x20ac;" horiz-adv-x="1584" d="M70 468v109h95v279h-95v109h95v49q0 174 104 296q103 120 246 120h964v-108h-944q-112 0 -188 -92q-77 -90 -77 -216v-49h1036l-16 -109h-1020v-279h991l-16 -109h-975v-58q0 -125 77 -215q76 -92 188 -92h944v-108h-964q-143 0 -246 120q-104 122 -104 295v58h-95z" />
<glyph unicode="&#x2122;" horiz-adv-x="1858" d="M131 1352v63h609v-63h-269v-503h-72v503h-268zM740 849v384q12 78 62 130q51 52 118 52h198q78 0 123 -76q55 76 138 76h198q62 0 107 -52q44 -53 44 -127v-387h-71v387q0 46 -24 81q-25 35 -56 35h-198q-45 0 -77 -46q-32 -45 -32 -107v-350h-72v387q0 46 -24 81t-56 35 h-198q-44 0 -77 -46q-32 -45 -32 -107v-350h-71z" />
<glyph unicode="&#x25fc;" horiz-adv-x="955" d="M0 0v955h955v-955h-955z" />
</font>
</defs>
</svg>
